<svg width="638" height="618" viewBox="0 0 638 618" fill="none" xmlns="http://www.w3.org/2000/svg">
<path d="M85.1562 545.003V556.236H168.787V545.003H85.1562Z" fill="#E0E0E0"/>
<path d="M96.5587 545.449C96.8411 545.449 97.079 547.809 97.079 550.722C97.079 553.635 96.8411 555.98 96.5587 555.98C96.2762 555.98 96.0234 553.62 96.0234 550.722C96.0234 547.824 96.2613 545.449 96.5587 545.449Z" fill="#FAFAFA"/>
<path d="M94.7352 545.229C95.0325 545.229 95.2555 547.589 95.2555 550.487C95.2555 553.385 95.0325 555.76 94.7352 555.76C94.4378 555.76 94.2148 553.399 94.2148 550.487C94.2148 547.574 94.4378 545.229 94.7352 545.229Z" fill="#FAFAFA"/>
<path d="M162.325 545.449C162.622 545.449 162.86 547.809 162.86 550.722C162.86 553.635 162.622 555.98 162.325 555.98C162.028 555.98 161.805 553.62 161.805 550.722C161.805 547.824 162.043 545.449 162.325 545.449Z" fill="#FAFAFA"/>
<path d="M160.516 545.229C160.798 545.229 161.036 547.589 161.036 550.487C161.036 553.385 160.798 555.76 160.516 555.76C160.233 555.76 159.98 553.399 159.98 550.487C159.98 547.574 160.218 545.229 160.516 545.229Z" fill="#FAFAFA"/>
<path d="M149.578 550.949C149.578 551.247 139.997 551.471 128.187 551.471C116.378 551.471 106.797 551.247 106.797 550.949C106.797 550.65 116.378 550.426 128.187 550.426C139.997 550.426 149.578 550.65 149.578 550.949Z" fill="#FAFAFA"/>
<path d="M84.7969 595.585V618.051H168.428V595.585H84.7969Z" fill="#E0E0E0"/>
<path d="M169.496 611.731C169.496 611.731 169.362 611.835 169.05 611.985C168.738 612.134 168.278 612.358 167.654 612.627C165.836 613.402 163.93 613.949 161.979 614.255C158.854 614.825 155.628 614.364 152.784 612.941C151.025 611.998 149.525 610.634 148.417 608.967C147.146 607.069 146.616 604.766 146.932 602.499C147.114 601.269 147.628 600.112 148.417 599.153C148.84 598.629 149.378 598.21 149.989 597.93C150.6 597.65 151.267 597.517 151.938 597.54C152.628 597.597 153.3 597.796 153.911 598.125C154.521 598.454 155.058 598.906 155.488 599.452C156.403 600.537 156.967 601.876 157.107 603.291C157.221 604.748 157.023 606.213 156.526 607.586C156.028 608.96 155.244 610.21 154.225 611.253C152.109 613.503 149.255 614.909 146.189 615.211C143.032 615.516 139.847 615.119 136.86 614.046C133.668 613.042 130.835 611.127 128.705 608.534C127.607 607.141 126.945 605.451 126.804 603.679C126.715 602.758 126.829 601.828 127.137 600.956C127.445 600.083 127.94 599.289 128.586 598.63C129.294 597.947 130.221 597.539 131.201 597.48C132.169 597.454 133.123 597.725 133.934 598.257C135.502 599.29 136.605 600.898 137.009 602.738C137.359 604.535 137.239 606.392 136.661 608.128C136.083 609.864 135.066 611.419 133.711 612.642C131.056 614.896 127.759 616.245 124.293 616.496C121.009 616.876 117.681 616.545 114.534 615.525C111.445 614.547 108.808 612.485 107.107 609.714C106.26 608.399 105.736 606.902 105.576 605.344C105.416 603.786 105.625 602.213 106.186 600.752C106.464 600.019 106.921 599.369 107.516 598.863C108.111 598.356 108.823 598.009 109.587 597.854C110.322 597.721 111.076 597.743 111.802 597.917C112.529 598.092 113.211 598.416 113.806 598.869C114.849 599.79 115.595 601.002 115.949 602.351C116.304 603.7 116.251 605.124 115.797 606.443C114.983 608.797 113.52 610.87 111.578 612.418C108.361 615.158 104.323 616.736 100.11 616.899C97.5458 616.991 94.9908 616.539 92.611 615.574C90.2311 614.609 88.0795 613.152 86.2955 611.298C85.9383 610.928 85.6011 610.539 85.2854 610.132C85.1739 609.997 85.0744 609.852 84.9883 609.699C86.7541 611.659 88.864 613.274 91.2123 614.464C93.9793 615.831 97.0461 616.468 100.125 616.317C104.19 616.085 108.064 614.509 111.147 611.835C112.957 610.362 114.316 608.405 115.069 606.189C115.462 605.034 115.507 603.788 115.198 602.608C114.889 601.428 114.239 600.366 113.331 599.557C112.832 599.183 112.262 598.916 111.656 598.772C111.051 598.628 110.423 598.611 109.81 598.72C109.189 598.849 108.611 599.137 108.133 599.556C107.654 599.974 107.291 600.509 107.077 601.11C106.589 602.429 106.416 603.846 106.574 605.245C106.731 606.643 107.214 607.985 107.983 609.162C109.578 611.721 112.035 613.619 114.905 614.509C117.917 615.47 121.096 615.775 124.234 615.405C127.477 615.163 130.563 613.904 133.058 611.805C134.281 610.697 135.198 609.289 135.719 607.718C136.239 606.147 136.346 604.468 136.028 602.843C135.694 601.263 134.762 599.876 133.429 598.974C132.828 598.527 132.09 598.306 131.343 598.349C130.597 598.393 129.889 598.699 129.344 599.213C128.804 599.762 128.391 600.425 128.134 601.153C127.877 601.881 127.783 602.657 127.858 603.425C127.984 604.995 128.568 606.491 129.537 607.727C131.539 610.158 134.195 611.958 137.187 612.911C140.039 613.943 143.081 614.335 146.1 614.061C148.926 613.787 151.56 612.505 153.527 610.446C154.465 609.502 155.19 608.367 155.654 607.117C156.118 605.867 156.309 604.532 156.216 603.201C156.166 601.993 155.709 600.837 154.922 599.922C154.134 599.008 153.061 598.389 151.878 598.167C151.328 598.15 150.78 598.259 150.278 598.487C149.776 598.715 149.333 599.055 148.982 599.482C148.257 600.331 147.779 601.365 147.6 602.469C147.296 604.561 147.778 606.691 148.952 608.444C149.982 610.04 151.384 611.358 153.037 612.283C155.781 613.7 158.904 614.197 161.95 613.703C163.877 613.437 165.77 612.962 167.594 612.283C168.842 611.97 169.481 611.686 169.496 611.731Z" fill="#FAFAFA"/>
<path d="M92.2734 556.55V595.539H168.433V556.55H92.2734Z" fill="#EBEBEB"/>
<path d="M104.926 557.893C105.208 557.893 105.446 566.333 105.446 576.76C105.446 587.187 105.208 595.627 104.926 595.627C104.643 595.627 104.391 587.187 104.391 576.76C104.391 566.333 104.629 557.893 104.926 557.893Z" fill="#E0E0E0"/>
<path d="M110.703 557.4C110.986 557.4 111.224 565.751 111.224 576.029C111.224 586.306 110.986 594.657 110.703 594.657C110.421 594.657 110.168 586.321 110.168 576.029C110.168 565.736 110.406 557.4 110.703 557.4Z" fill="#E0E0E0"/>
<path d="M159.832 556.205C160.115 556.205 160.352 564.989 160.352 575.834C160.352 586.68 160.115 595.449 159.832 595.449C159.55 595.449 159.297 586.665 159.297 575.834C159.297 565.004 159.535 556.205 159.832 556.205Z" fill="#E0E0E0"/>
<path d="M153.039 556.684C153.322 556.684 153.559 565.228 153.559 575.79C153.559 586.351 153.322 594.896 153.039 594.896C152.757 594.896 152.504 586.351 152.504 575.79C152.504 565.228 152.742 556.684 153.039 556.684Z" fill="#E0E0E0"/>
<path d="M563.009 471.446C570.912 467.338 580.196 466.815 588.975 468.264C593.684 469.056 598.586 470.46 601.794 474.03C605.003 477.6 605.597 483.845 601.928 486.892C599.73 488.715 596.684 488.999 593.832 488.954C586.97 488.879 579.364 487.669 573.883 491.822C570.748 494.182 568.669 498.126 564.97 499.291C561.271 500.456 557.186 498.26 555.255 494.944C553.47 491.485 553.076 487.468 554.156 483.725C554.593 481.132 555.62 478.674 557.155 476.545C558.691 474.415 560.694 472.67 563.009 471.446Z" fill="#EBEBEB"/>
<path d="M544.92 436.324C549.747 443.255 559.136 440.955 563.488 436.727C567.84 432.499 569.682 426.36 571.346 420.504C575.178 407.149 579.026 393.122 576.189 379.513C575.508 375.385 573.704 371.527 570.975 368.368C569.594 366.811 567.833 365.644 565.866 364.984C563.898 364.324 561.793 364.192 559.759 364.604C555.036 365.874 552.094 370.579 549.97 374.956C543.711 388.048 540.428 402.377 540.359 416.904C540.359 423.656 541.132 430.737 544.92 436.324Z" fill="#EBEBEB"/>
<path d="M531.716 446.272C536.959 440.013 537.955 430.885 535.622 423.057C533.29 415.23 528.017 408.537 521.941 403.1C514.793 396.7 506.473 391.763 497.446 388.564C493.954 387.15 490.2 386.508 486.439 386.682C484.559 386.792 482.734 387.362 481.124 388.344C479.513 389.325 478.166 390.688 477.2 392.314C474.615 397.259 477.096 403.249 479.769 408.149C484.482 416.763 489.855 424.994 495.842 432.767C500.67 439.027 506.24 445.196 513.534 448.02C520.827 450.843 528.522 450.499 532.414 445.376" fill="#EBEBEB"/>
<path d="M544.591 540.923C544.846 539.891 544.995 538.835 545.036 537.771C545.259 535.486 545.527 532.603 545.868 529.182C546.294 524.944 546.934 520.731 547.785 516.559C548.902 511.464 550.427 506.468 552.345 501.62C554.227 496.805 556.772 492.279 559.906 488.176C562.46 484.831 565.723 482.101 569.457 480.183C571.996 478.93 574.711 478.078 577.508 477.659C578.562 477.626 579.608 477.476 580.628 477.211C579.571 477.094 578.506 477.094 577.449 477.211C574.544 477.433 571.701 478.177 569.056 479.407C565.127 481.275 561.681 484.031 558.985 487.459C555.708 491.624 553.065 496.256 551.142 501.202C549.223 506.107 547.732 511.17 546.685 516.335C545.876 520.555 545.316 524.82 545.007 529.107C544.739 532.752 544.635 535.71 544.591 537.756C544.48 538.809 544.48 539.871 544.591 540.923Z" fill="#E0E0E0"/>
<path d="M545.182 534.306C545.272 533.814 545.301 533.312 545.271 532.813C545.271 531.722 545.271 530.333 545.271 528.63C545.271 525.015 545.271 519.756 545.45 513.273C545.776 500.306 546.935 486.384 549.03 466.665C551.065 448.171 553.783 426.63 556.665 412.632C557.274 409.45 557.898 406.582 558.492 404.072C559.086 401.563 559.517 399.397 559.977 397.649C560.438 395.901 560.69 394.661 560.943 393.586C561.077 393.097 561.166 392.597 561.21 392.092C560.983 392.526 560.814 392.988 560.705 393.466C560.378 394.512 559.977 395.841 559.487 397.47C558.997 399.098 558.403 401.354 557.779 403.863C557.155 406.373 556.442 409.226 555.774 412.408C552.205 428.963 549.522 445.698 547.737 462.542C545.598 482.261 544.633 500.217 544.543 513.213C544.469 519.712 544.543 524.97 544.766 528.6C544.87 530.303 544.959 531.692 545.019 532.783C545.01 533.295 545.065 533.807 545.182 534.306Z" fill="#E0E0E0"/>
<path d="M545.274 499.681C545.388 498.229 545.388 496.771 545.274 495.319C545.111 492.51 544.725 488.447 543.937 483.488C542.99 477.673 541.716 471.918 540.12 466.248C538.246 459.273 535.848 452.452 532.945 445.842C527.975 433.66 520.843 422.488 511.896 412.873C510.336 411.231 508.679 409.684 506.935 408.242C506.177 407.6 505.449 406.957 504.825 406.45L502.909 405.12C501.753 404.233 500.526 403.443 499.24 402.76C499.032 403.044 504.424 406.226 511.228 413.516C519.882 423.215 526.825 434.33 531.757 446.38C534.595 452.944 536.992 459.691 538.931 466.577C540.818 472.911 542.066 478.737 543.016 483.637C543.967 488.537 544.428 492.6 544.74 495.364C544.802 496.815 544.981 498.259 545.274 499.681Z" fill="#E0E0E0"/>
<path d="M509.684 555.504L513.145 603.038H573.855L577.316 555.504H509.684Z" fill="#EBEBEB"/>
<path d="M584.551 536.773H503.816V555.505H584.551V536.773Z" fill="#EBEBEB"/>
<path d="M503.816 601.217V606.415H507.619H583.229V601.217H503.816Z" fill="#E0E0E0"/>
<path d="M511.331 614.975L507.617 605.848H580.33L575.993 614.975H511.331Z" fill="#E0E0E0"/>
<path d="M576.184 571.039C576.11 571.195 576.015 571.341 575.902 571.472C575.649 571.801 575.352 572.189 574.996 572.682L571.446 577.238L571.297 577.447L571.149 577.223C568.92 574.131 565.949 570.008 562.459 565.138H562.904L554.348 577.327L554.081 577.701L553.784 577.342L543.682 565.168H544.262L543.712 565.87L534.681 577.342L534.369 577.731L534.101 577.327C531.012 572.951 528.159 568.843 525.53 565.153H526.035L515.489 577.238L515.31 577.447L515.162 577.208L511.864 571.636C511.508 571.024 511.24 570.531 511.017 570.142C510.908 569.98 510.818 569.804 510.75 569.62C510.887 569.759 511.007 569.914 511.106 570.083L512.042 571.576L515.503 577.059H515.177L525.575 564.825L525.827 564.526L526.065 564.855L534.71 576.984H534.116L543.177 565.527L543.727 564.81L544.024 564.451L544.321 564.81L554.437 576.969H553.873L562.518 564.84L562.771 564.481L563.008 564.84L571.52 577.059H571.208C572.768 575.176 573.986 573.698 574.892 572.577L575.872 571.427C576.051 571.143 576.169 571.024 576.184 571.039Z" fill="#F5F5F5"/>
<path d="M578.158 555.19C578.158 555.399 562.932 555.563 544.171 555.563C525.41 555.563 510.184 555.399 510.184 555.19C510.184 554.981 525.395 554.816 544.171 554.816C562.947 554.816 578.158 554.981 578.158 555.19Z" fill="#F5F5F5"/>
<path d="M231.962 60.0088C231.962 60.0088 231.828 60.0088 231.605 59.9042L230.625 59.5158L226.881 57.9473L213.141 51.9719L167.983 32.1933L166.408 31.4912H166.735L122.484 50.5975L109.115 56.2443L105.46 57.7381C105.044 57.9304 104.611 58.0853 104.168 58.2012C104.562 57.9648 104.975 57.76 105.401 57.5888L108.996 55.9455L122.365 50.0448L166.512 30.7891H166.676H166.839L168.414 31.4762L213.483 51.4938L227.104 57.6336L230.788 59.3515L231.739 59.8146C231.82 59.8704 231.895 59.9355 231.962 60.0088Z" fill="#E0E0E0"/>
<path d="M302.403 53.4961H12.3086V271.942H302.403V53.4961Z" fill="#E0E0E0"/>
<path d="M293.355 63.6523H22.4531V262.962H293.355V63.6523Z" fill="#FAFAFA"/>
<path d="M82.293 150.73C82.293 150.73 82.5752 184.178 84.2686 194.396L125.995 192.409C125.995 192.409 122.341 159.544 123.752 150.73H82.293Z" fill="#E0E0E0"/>
<path d="M102.851 155.454H103.46C104.04 155.432 104.622 155.462 105.198 155.543C106.112 155.68 107.002 155.946 107.842 156.335C108.953 156.888 109.935 157.672 110.723 158.635C111.692 159.806 112.379 161.187 112.729 162.668C113.055 164.404 112.906 166.195 112.298 167.852C111.987 168.753 111.594 169.623 111.125 170.451C110.626 171.294 110.18 172.167 109.788 173.065C108.956 174.97 108.386 176.98 108.094 179.04V179.175H107.961H103.846H99.5232H99.3598V179.025C99.1745 176.976 98.4854 175.004 97.3544 173.289C96.8493 172.423 96.2997 171.631 95.8689 170.809C95.3297 170.036 94.8338 169.233 94.3835 168.405C93.6215 166.818 93.3922 165.025 93.7299 163.296C93.9724 161.803 94.524 160.378 95.349 159.113C96.0535 158.097 96.9778 157.254 98.0525 156.649C99.3794 155.941 100.834 155.509 102.331 155.379H102.925C102.925 155.379 102.925 155.379 102.776 155.379H102.331C101.764 155.446 101.203 155.556 100.652 155.708C99.7737 155.938 98.9296 156.285 98.1417 156.738C97.0906 157.336 96.1908 158.169 95.5124 159.173C94.7451 160.427 94.2397 161.824 94.027 163.281C93.7028 164.957 93.9324 166.693 94.6806 168.225C95.1354 169.042 95.6312 169.834 96.166 170.6C96.6859 171.392 97.2356 172.214 97.7406 173.08C98.9131 174.834 99.6236 176.86 99.8054 178.965L99.642 178.801H103.965H108.094L107.931 178.951C108.228 176.864 108.808 174.829 109.654 172.901C110.062 171.995 110.518 171.113 111.021 170.257C111.482 169.447 111.87 168.597 112.179 167.717C112.781 166.112 112.94 164.373 112.64 162.683C112.301 161.237 111.646 159.885 110.723 158.725C109.957 157.774 109.001 156.995 107.916 156.439C107.094 156.04 106.218 155.763 105.316 155.618C104.751 155.531 104.18 155.481 103.608 155.469H103.148C102.91 155.469 102.851 155.469 102.851 155.454Z" fill="white"/>
<path d="M104.982 178.769C104.979 178.725 104.979 178.68 104.982 178.635V178.246C104.982 177.903 104.848 177.395 104.759 176.753C104.566 175.438 104.283 173.556 104.105 171.211C104.105 170.628 104.016 170.016 104.001 169.374C103.964 168.702 103.964 168.029 104.001 167.357C104.017 166.636 104.174 165.926 104.462 165.266C104.783 164.553 105.354 163.984 106.066 163.667C106.445 163.507 106.863 163.463 107.267 163.54C107.671 163.617 108.044 163.812 108.339 164.101C108.496 164.247 108.619 164.425 108.701 164.623C108.783 164.822 108.822 165.036 108.814 165.251C108.805 165.683 108.66 166.102 108.398 166.446C108.129 166.795 107.784 167.076 107.388 167.267C106.995 167.453 106.581 167.588 106.155 167.671C104.415 168.028 102.627 168.089 100.867 167.85C100.431 167.79 100.006 167.67 99.6042 167.491C99.2119 167.314 98.8585 167.06 98.5644 166.744C98.263 166.428 98.0525 166.036 97.9553 165.609C97.8619 165.191 97.9143 164.753 98.1039 164.369C98.2759 163.983 98.5899 163.678 98.9803 163.518C99.1657 163.438 99.3653 163.396 99.5671 163.396C99.7688 163.396 99.9685 163.438 100.154 163.518C100.512 163.682 100.82 163.94 101.045 164.265C101.254 164.584 101.405 164.938 101.491 165.31C101.617 166.021 101.686 166.74 101.699 167.462L101.907 171.3C102.011 173.646 102.115 175.543 102.174 176.872C102.174 177.515 102.174 178.022 102.174 178.366V178.889C102.177 178.844 102.177 178.799 102.174 178.754C102.174 178.665 102.174 178.53 102.174 178.366C102.174 178.202 102.174 177.5 102.085 176.872C102.085 175.543 101.892 173.646 101.758 171.3C101.758 170.135 101.624 168.851 101.55 167.462C101.541 166.749 101.466 166.039 101.327 165.34C101.255 164.983 101.113 164.643 100.911 164.34C100.691 164.035 100.4 163.789 100.065 163.623C99.8933 163.549 99.7089 163.511 99.5225 163.511C99.3361 163.511 99.1517 163.549 98.9803 163.623C98.6188 163.774 98.3271 164.057 98.1633 164.414C97.9923 164.777 97.9453 165.187 98.0296 165.579C98.1297 165.977 98.3291 166.342 98.6089 166.64C99.2119 167.238 99.996 167.616 100.837 167.715C101.709 167.83 102.588 167.87 103.466 167.835C104.345 167.812 105.22 167.712 106.081 167.536C106.498 167.456 106.903 167.32 107.284 167.133C107.66 166.951 107.991 166.685 108.25 166.356C108.495 166.033 108.635 165.642 108.651 165.236C108.65 165.038 108.61 164.843 108.533 164.661C108.457 164.479 108.345 164.314 108.205 164.175C107.925 163.907 107.575 163.725 107.196 163.651C106.817 163.577 106.425 163.614 106.066 163.757C105.406 164.056 104.878 164.587 104.58 165.251C104.298 165.902 104.142 166.602 104.12 167.312C104.12 167.999 104.12 168.657 104.12 169.299C104.12 169.941 104.12 170.554 104.224 171.151C104.402 173.496 104.67 175.378 104.833 176.678C104.922 177.335 104.996 177.828 105.041 178.172V178.56C105.029 178.632 105.009 178.702 104.982 178.769Z" fill="white"/>
<path d="M99.4453 178.995C99.513 179.455 99.5527 179.919 99.5642 180.384C99.5642 181.38 99.6236 182.59 99.7424 184.014V183.924L102.565 187.225H102.416L105.669 187.046H105.536L107.14 185.074L107.957 184.073V184.208C107.957 182.281 107.868 180.473 107.838 178.83L108.016 178.995H101.941H99.4453C99.6374 178.967 99.8325 178.967 100.025 178.995L101.733 178.905L107.912 178.666H108.091V178.845C108.091 180.503 108.195 182.311 108.254 184.223V184.238C107.987 184.566 107.719 184.91 107.437 185.239L105.818 187.225H105.729L102.476 187.39H102.416L99.6533 184.088C99.6533 182.595 99.6533 181.4 99.6533 180.354C99.5574 179.905 99.4879 179.451 99.4453 178.995Z" fill="white"/>
<path d="M107.883 183.713C107.883 183.713 107.764 183.713 107.571 183.578C107.294 183.454 107.012 183.344 106.724 183.25C105.77 182.915 104.762 182.763 103.753 182.802C102.733 182.824 101.725 183.037 100.782 183.429L99.9651 183.817L99.668 183.967C99.7445 183.886 99.8352 183.82 99.9354 183.773C100.199 183.612 100.472 183.467 100.752 183.339C101.689 182.921 102.699 182.693 103.723 182.667C104.736 182.63 105.747 182.797 106.694 183.16C106.981 183.263 107.259 183.388 107.526 183.534L107.883 183.713Z" fill="white"/>
<path d="M107.868 182.414L107.571 182.28L106.724 181.936C105.768 181.61 104.762 181.458 103.753 181.488C102.734 181.525 101.729 181.737 100.782 182.115C100.426 182.265 100.158 182.399 99.9651 182.504L99.668 182.653L99.9354 182.459C100.196 182.298 100.469 182.158 100.752 182.041C101.688 181.617 102.698 181.384 103.723 181.354C104.735 181.331 105.743 181.498 106.694 181.847C107.051 181.996 107.333 182.13 107.526 182.235C107.719 182.34 107.883 182.399 107.868 182.414Z" fill="white"/>
<path d="M107.793 181.159L107.496 181.039C107.288 180.95 107.006 180.815 106.65 180.696C105.694 180.37 104.688 180.219 103.679 180.248C102.658 180.268 101.65 180.481 100.708 180.875C100.351 181.024 100.084 181.159 99.8908 181.263L99.5938 181.413L99.8611 181.219C100.123 181.054 100.396 180.91 100.678 180.785C101.617 180.375 102.625 180.147 103.649 180.113C104.661 180.092 105.668 180.259 106.62 180.606C106.906 180.716 107.184 180.846 107.452 180.994C107.575 181.026 107.691 181.082 107.793 181.159Z" fill="white"/>
<path d="M35.8203 96.1016C35.8203 96.1016 36.1026 129.564 37.796 139.767L79.5224 137.78C79.5224 137.78 75.8533 104.915 77.2645 96.1016H35.8203Z" fill="#EBEBEB"/>
<path d="M70.9805 110.083C66.3491 110.773 61.6819 111.191 57.0024 111.338C52.3364 111.77 47.6484 111.915 42.9648 111.771C47.5972 111.091 52.2639 110.672 56.943 110.516C61.61 110.102 66.2969 109.957 70.9805 110.083Z" fill="white"/>
<path d="M70.9852 117.162C66.3549 117.863 61.6873 118.287 57.0071 118.432C52.345 118.846 47.663 118.991 42.9844 118.865C47.6156 118.174 52.2829 117.755 56.9625 117.61C61.6241 117.186 66.3063 117.037 70.9852 117.162Z" fill="white"/>
<path d="M63.8991 124.126C61.2819 124.694 58.6143 124.994 55.937 125.022C53.28 125.294 50.6024 125.294 47.9453 125.022C50.5576 124.455 53.2202 124.155 55.8925 124.126C58.5545 123.854 61.2371 123.854 63.8991 124.126Z" fill="white"/>
<path d="M33.8477 194.471C33.8477 194.471 34.1299 227.918 35.8233 238.136L77.5497 236.149C77.5497 236.149 73.8806 203.284 75.2918 194.471H33.8477Z" fill="#EBEBEB"/>
<path d="M69.0125 208.513C64.382 209.213 59.7145 209.637 55.0344 209.783C50.3723 210.198 45.6903 210.342 41.0117 210.216C45.6379 209.525 50.3002 209.106 54.975 208.962C59.6415 208.538 64.3287 208.388 69.0125 208.513Z" fill="white"/>
<path d="M69.0125 215.608C64.3814 216.3 59.7141 216.719 55.0344 216.863C50.3723 217.278 45.6903 217.423 41.0117 217.296C45.643 216.606 50.3102 216.187 54.9898 216.042C59.6519 215.627 64.3339 215.482 69.0125 215.608Z" fill="white"/>
<path d="M61.9264 222.568C59.3143 223.134 56.6513 223.429 53.9793 223.449C51.3198 223.746 48.6372 223.771 45.9727 223.524C48.585 222.957 51.2475 222.656 53.9198 222.627C56.5795 222.331 59.2626 222.31 61.9264 222.568Z" fill="white"/>
<path d="M147.887 104.9L152.016 201.403L271.803 202.852L266.426 106.17L147.887 104.9Z" fill="#EBEBEB"/>
<path d="M265.488 104.213H146.488V194.576H265.488V104.213Z" fill="#F5F5F5"/>
<path d="M265.489 194.574C265.489 194.574 265.489 193.992 265.489 192.886C265.489 191.781 265.489 190.168 265.489 188.076C265.489 183.834 265.489 177.619 265.4 169.791C265.4 154.031 265.296 131.489 265.222 104.211L265.563 104.54H146.578L146.994 104.137C146.994 136.628 146.994 167.401 146.994 194.5L146.623 194.126L232.453 194.306L256.873 194.41H263.365H265.043H265.623H263.439L256.903 194.694L232.586 194.799L146.43 194.978H146.059V194.619C146.059 167.521 146.059 136.747 146.059 104.256V103.838H146.475H265.459H265.816V104.181C265.816 131.534 265.682 154.166 265.638 169.911C265.638 177.754 265.638 183.893 265.548 188.121C265.548 190.183 265.548 191.766 265.548 192.871C265.519 194.037 265.489 194.574 265.489 194.574Z" fill="#E0E0E0"/>
<path d="M209.084 123.35H160.852V184.403H209.084V123.35Z" fill="#F5F5F5"/>
<path d="M209.09 184.4C209.074 184.296 209.074 184.19 209.09 184.086V183.22C209.09 182.413 209.09 181.308 209.09 179.889C209.09 176.901 209.09 172.703 209.001 167.355C209.001 156.614 208.882 141.407 208.808 123.346L209.179 123.72H160.947C160.843 123.72 161.719 122.943 161.348 123.316V139.913C161.348 145.336 161.348 150.624 161.348 155.748C161.348 166.011 161.348 175.616 161.348 184.34L161.021 183.997L195.944 184.176L205.733 184.266H208.333H209.254C208.972 184.286 208.689 184.286 208.407 184.266H205.882L196.152 184.355L161.021 184.534H160.679V184.191C160.679 175.467 160.679 165.861 160.679 155.599C160.679 150.475 160.679 145.142 160.679 139.764V123.376C160.308 123.735 161.169 122.853 161.095 122.958H209.328H209.699V123.331C209.625 141.482 209.551 156.779 209.506 167.579L209.417 180.023C209.417 181.417 209.417 182.508 209.417 183.295C209.417 183.623 209.417 183.892 209.417 184.116C209.32 184.223 209.21 184.319 209.09 184.4Z" fill="#E0E0E0"/>
<path d="M255.135 109.381H162.695V118.179H255.135V109.381Z" fill="#F5F5F5"/>
<path d="M255.138 118.177C255.138 118.177 255.138 117.953 255.138 117.58C255.138 117.207 255.138 116.579 255.138 115.862C255.138 114.368 255.138 112.173 255.034 109.379L255.197 109.544C239.615 109.693 204.083 109.797 162.757 109.797C163.574 108.961 162.98 109.558 163.173 109.379V118.148L162.772 117.729L228.296 117.909L247.963 118.028H253.311H254.722C254.885 118.016 255.049 118.016 255.212 118.028H254.781H253.429H248.171L228.593 118.163L162.772 118.327H162.371V117.924C162.371 116.519 162.371 115.07 162.371 113.607V109.125L162.787 108.707C204.112 108.707 239.644 108.812 255.227 108.961H255.405V109.125C255.405 111.948 255.405 114.159 255.316 115.713C255.316 116.415 255.316 116.953 255.316 117.371C255.304 117.648 255.244 117.921 255.138 118.177Z" fill="#E0E0E0"/>
<path d="M255.136 123.35H214.984V160.143H255.136V123.35Z" fill="#F5F5F5"/>
<path d="M255.141 160.143C255.141 160.143 255.141 159.889 255.141 159.441V157.439C255.141 155.647 255.141 153.122 255.051 149.97C255.051 143.487 254.948 134.359 254.873 123.379L255.215 123.738H215.108L215.509 123.335V133.209C215.509 136.436 215.509 139.603 215.509 142.695C215.509 148.864 215.509 154.646 215.509 160.113L215.137 159.755L244.104 159.934L252.318 160.038H254.517C254.774 160.017 255.032 160.017 255.289 160.038C255.057 160.06 254.823 160.06 254.591 160.038H252.467L244.341 160.128L215.137 160.307H214.781V159.934C214.781 154.541 214.781 148.685 214.781 142.516C214.781 139.423 214.781 136.256 214.781 133.03V123.155C214.409 123.514 215.271 122.647 215.197 122.737H255.304H255.661V123.081C255.586 134.15 255.527 143.367 255.482 149.97C255.482 153.107 255.408 155.602 255.393 157.439C255.393 158.226 255.393 158.868 255.393 159.366C255.345 159.636 255.26 159.897 255.141 160.143Z" fill="#E0E0E0"/>
<path d="M255.136 165.908H214.984V184.401H255.136V165.908Z" fill="#F5F5F5"/>
<path d="M255.14 184.402C255.14 184.402 255.14 183.924 255.14 183.058L255.066 179.353C255.066 176.082 254.976 171.526 254.902 165.909L255.199 166.208L215.092 166.327C214.721 166.701 215.582 165.82 215.493 165.924V175.439C215.493 178.532 215.493 181.534 215.493 184.402L215.092 184.014L243.806 184.193L252.184 184.312H254.442H255.244C255.007 184.334 254.768 184.334 254.531 184.312H252.347L244.073 184.432L215.092 184.611H214.706V184.223C214.706 181.355 214.706 178.352 214.706 175.26V165.745C214.617 165.745 215.478 164.953 215.122 165.327L255.229 165.431H255.422V165.73C255.422 171.421 255.303 176.052 255.273 179.353C255.273 180.847 255.273 182.087 255.273 182.998C255.274 183.469 255.229 183.939 255.14 184.402Z" fill="#E0E0E0"/>
<path d="M207.884 123.451C192.94 144.201 175.769 163.651 160.84 184.4L207.884 123.451Z" fill="white"/>
<path d="M160.852 184.401C160.852 184.401 160.956 184.147 161.238 183.714L162.5 181.862C163.6 180.248 165.249 177.963 167.328 175.169C171.473 169.552 177.4 161.963 184.054 153.673C190.709 145.382 196.696 137.853 200.944 132.34L205.98 125.812L207.361 124.035C207.688 123.646 207.866 123.437 207.896 123.452C207.788 123.695 207.654 123.926 207.495 124.139L206.232 125.991C205.133 127.605 203.484 129.89 201.404 132.699C197.26 138.301 191.333 145.89 184.678 154.18C178.023 162.471 172.052 170 167.789 175.513L162.753 182.056L161.371 183.818C161.221 184.032 161.047 184.228 160.852 184.401Z" fill="#E0E0E0"/>
<path d="M209.089 184.405C208.911 184.539 197.963 170.96 184.653 154.139C171.343 137.318 160.678 123.5 160.886 123.351C161.094 123.201 171.997 136.795 185.322 153.631C198.646 170.467 209.267 184.24 209.089 184.405Z" fill="#E0E0E0"/>
<path d="M152.01 123.481C152.01 124.982 151.568 126.449 150.738 127.697C149.909 128.945 148.731 129.917 147.352 130.492C145.973 131.066 144.456 131.216 142.992 130.923C141.528 130.631 140.184 129.908 139.128 128.847C138.073 127.785 137.354 126.433 137.063 124.961C136.772 123.489 136.921 121.964 137.492 120.577C138.064 119.19 139.031 118.005 140.272 117.171C141.513 116.338 142.972 115.893 144.464 115.893C146.464 115.897 148.381 116.697 149.796 118.12C151.21 119.542 152.006 121.47 152.01 123.481Z" fill="#E0E0E0"/>
<path d="M275.44 105.065C275.44 106.566 274.997 108.033 274.168 109.281C273.339 110.529 272.16 111.501 270.782 112.076C269.403 112.65 267.885 112.8 266.422 112.507C264.958 112.215 263.613 111.492 262.558 110.431C261.503 109.369 260.784 108.017 260.493 106.545C260.201 105.073 260.351 103.548 260.922 102.161C261.493 100.774 262.46 99.5892 263.701 98.7554C264.942 97.9216 266.401 97.4766 267.894 97.4766C269.894 97.4805 271.811 98.2813 273.225 99.7035C274.64 101.126 275.436 103.054 275.44 105.065Z" fill="#E0E0E0"/>
<path d="M570.63 157.916H483.672V284.684H570.63V157.916Z" fill="#E0E0E0"/>
<path d="M566.279 157.916H479.32V284.684H566.279V157.916Z" fill="#F5F5F5"/>
<path d="M555.477 171.643H490.117V270.954H555.477V171.643Z" fill="white"/>
<path d="M555.48 270.957C555.48 270.957 555.48 270.778 555.48 270.464C555.48 270.151 555.48 269.673 555.48 269.06C555.48 267.805 555.48 265.983 555.48 263.608C555.48 258.857 555.48 251.911 555.48 243.157C555.48 225.649 555.48 200.851 555.376 171.646L555.598 171.87H490.12L490.357 171.631C490.357 209.097 490.357 243.635 490.357 270.942L490.164 270.748L537.699 270.853H550.845H554.291H555.494H554.336H550.919H537.818L490.135 270.942H489.941V270.763C489.941 243.456 489.941 208.918 489.941 171.452V171.213H490.12H555.48H555.688V171.422C555.688 200.687 555.613 225.529 555.584 243.127C555.584 251.866 555.584 258.782 555.584 263.533C555.584 265.878 555.584 267.686 555.584 268.926C555.584 269.538 555.584 269.986 555.584 270.315L555.48 270.957Z" fill="#E0E0E0"/>
<path d="M566.518 157.916C566.099 158.72 565.601 159.481 565.032 160.187C564.022 161.546 562.581 163.383 560.947 165.385C559.313 167.386 557.783 169.149 556.655 170.419C556.078 171.13 555.436 171.785 554.738 172.376C555.234 171.605 555.79 170.876 556.402 170.195L560.591 165.086L564.765 159.977C565.299 159.248 565.884 158.559 566.518 157.916Z" fill="#E0E0E0"/>
<path d="M555.805 270.627C559.049 275.826 562.872 280.637 567.198 284.967L555.805 270.627Z" fill="white"/>
<path d="M567.198 284.967C566.475 284.435 565.812 283.824 565.222 283.145C563.704 281.598 562.266 279.972 560.915 278.275C559.564 276.578 558.3 274.813 557.127 272.987C556.604 272.25 556.161 271.459 555.805 270.627C556.389 271.311 556.925 272.034 557.409 272.793C558.36 274.152 559.711 275.99 561.286 277.976C562.861 279.963 564.361 281.681 565.46 282.921C566.092 283.556 566.673 284.24 567.198 284.967Z" fill="#E0E0E0"/>
<path d="M479.305 284.578L490.698 270.447L479.305 284.578Z" fill="white"/>
<path d="M490.699 270.447C490.788 270.447 488.322 273.763 485.188 277.662C483.33 280.071 481.347 282.38 479.246 284.578C482.795 279.67 486.598 274.954 490.64 270.447H490.699Z" fill="#E0E0E0"/>
<path d="M479.32 157.916C481.272 160.037 483.116 162.256 484.846 164.563C486.69 166.781 488.411 169.1 490.001 171.509C488.043 169.378 486.198 167.144 484.475 164.817C482.626 162.618 480.905 160.314 479.32 157.916Z" fill="#E0E0E0"/>
<path d="M535.115 191.812H513.234V254.3H535.115V191.812Z" fill="#E0E0E0"/>
<path d="M550.589 23.2194L538.141 23.2871L538.476 85.5798L550.924 85.5121L550.589 23.2194Z" fill="#E0E0E0"/>
<path d="M462.535 23.3852L430.301 23.5605L430.486 57.9485L462.72 57.7731L462.535 23.3852Z" fill="#EBEBEB"/>
<path d="M494.605 23.223L462.371 23.3984L462.556 57.7864L494.79 57.611L494.605 23.223Z" fill="#F5F5F5"/>
<path d="M430.34 33.0895C451.76 33.2687 473.24 33.0895 494.66 32.7907C494.751 32.7907 494.838 32.7545 494.902 32.6901C494.966 32.6256 495.002 32.5383 495.002 32.4471C495.002 32.356 494.966 32.2686 494.902 32.2042C494.838 32.1398 494.751 32.1036 494.66 32.1036C473.22 31.9841 451.78 32.1135 430.34 32.4919C430.261 32.4919 430.186 32.5234 430.13 32.5795C430.074 32.6355 430.043 32.7115 430.043 32.7907C430.043 32.8699 430.074 32.9459 430.13 33.0019C430.186 33.058 430.261 33.0895 430.34 33.0895Z" fill="#E0E0E0"/>
<path d="M468.758 57.2145L410.188 57.5332L410.338 85.5574L468.909 85.2388L468.758 57.2145Z" fill="#EBEBEB"/>
<path d="M527.067 56.8981L468.496 57.2168L468.647 85.241L527.217 84.9224L527.067 56.8981Z" fill="#F5F5F5"/>
<path d="M410.227 65.3409C449.146 65.789 488.183 65.3409 527.087 64.7583C527.178 64.7583 527.265 64.7221 527.329 64.6577C527.393 64.5932 527.429 64.5059 527.429 64.4147C527.429 64.3236 527.393 64.2362 527.329 64.1718C527.265 64.1074 527.178 64.0712 527.087 64.0712C488.169 63.862 449.131 63.8919 410.227 64.7434C410.148 64.7434 410.072 64.7748 410.017 64.8309C409.961 64.8869 409.93 64.9629 409.93 65.0421C409.93 65.1213 409.961 65.1973 410.017 65.2534C410.072 65.3094 410.148 65.3409 410.227 65.3409Z" fill="#E0E0E0"/>
<path d="M615.258 85.5684H388.34V95.6065H615.258V85.5684Z" fill="#E0E0E0"/>
<path d="M434.698 90.3926H425.488V124.647H434.698V90.3926Z" fill="#E0E0E0"/>
<path d="M572.202 90.3926H562.992V124.647H572.202V90.3926Z" fill="#E0E0E0"/>
<path d="M562.733 0.000627893L550.285 0.0683594L550.746 85.7395L563.194 85.6717L562.733 0.000627893Z" fill="#EBEBEB"/>
<path d="M582.196 15.9495L562.855 16.0547L563.229 85.4879L582.569 85.3826L582.196 15.9495Z" fill="#F5F5F5"/>
<path d="M582.057 29.3393C575.628 29.796 569.175 29.796 562.746 29.3393C569.176 28.9025 575.627 28.9025 582.057 29.3393Z" fill="#E0E0E0"/>
<path d="M582.057 26.4292C575.628 26.8858 569.175 26.8858 562.746 26.4292C569.176 25.9924 575.627 25.9924 582.057 26.4292Z" fill="#E0E0E0"/>
<path d="M582.057 74.9468C575.628 75.4034 569.175 75.4034 562.746 74.9468C569.176 74.5099 575.627 74.5099 582.057 74.9468Z" fill="#E0E0E0"/>
<path d="M582.057 72.0327C575.628 72.4893 569.175 72.4893 562.746 72.0327C569.176 71.5959 575.627 71.5959 582.057 72.0327Z" fill="#E0E0E0"/>
<path d="M572.697 65.668C572.504 65.668 572.355 58.6618 572.355 50.0274C572.355 41.3929 572.504 34.3867 572.697 34.3867C572.891 34.3867 573.025 41.3929 573.025 50.0274C573.025 58.6618 572.876 65.668 572.697 65.668Z" fill="#E0E0E0"/>
<path d="M603.315 33.0117H582.266V85.416H603.315V33.0117Z" fill="#EBEBEB"/>
<path d="M593.391 71.8386C592.765 71.8754 592.137 71.7785 591.551 71.5545C590.964 71.3305 590.431 70.9843 589.986 70.5387C589.541 70.093 589.196 69.558 588.971 68.9686C588.746 68.3791 588.648 67.7486 588.683 67.1183C588.649 66.4314 588.787 65.747 589.086 65.1282C589.384 64.5095 589.833 63.9764 590.391 63.5781L590.866 64.2503C590.42 64.5779 590.06 65.0109 589.819 65.511C589.579 66.0111 589.464 66.5631 589.485 67.1183C589.485 68.1603 589.896 69.1595 590.629 69.8963C591.362 70.633 592.355 71.0469 593.391 71.0469C594.428 71.0469 595.421 70.633 596.154 69.8963C596.887 69.1595 597.298 68.1603 597.298 67.1183C597.32 66.5613 597.204 66.0076 596.96 65.5069C596.717 65.0063 596.353 64.5744 595.902 64.2503L596.392 63.5781C596.943 63.9818 597.386 64.5164 597.681 65.1341C597.977 65.7519 598.116 66.4335 598.085 67.1183C598.12 67.7473 598.022 68.3765 597.798 68.9648C597.574 69.5531 597.23 70.0874 596.787 70.5328C596.344 70.9782 595.813 71.3247 595.228 71.5497C594.643 71.7747 594.017 71.8732 593.391 71.8386Z" fill="#FAFAFA"/>
<path d="M596.899 62.2802L596.201 61.8768C596.931 60.9109 597.322 59.7291 597.315 58.5159C597.315 56.559 596.617 55.7674 595.577 55.7674C592.873 55.7674 594.864 61.9515 591.224 61.9515C589.828 61.9515 588.684 60.7715 588.684 58.4113C588.666 57.2792 588.981 56.1669 589.59 55.2147L590.303 55.6329C589.744 56.4542 589.453 57.4307 589.472 58.4262C589.472 60.2486 590.214 61.0553 591.21 61.0553C593.987 61.0553 592.027 54.8711 595.562 54.8711C597.047 54.8711 598.087 56.1856 598.087 58.5607C598.132 59.9016 597.712 61.2166 596.899 62.2802Z" fill="#FAFAFA"/>
<path d="M596.899 53.7489L596.201 53.3456C596.931 52.3796 597.322 51.1979 597.315 49.9846C597.315 48.0278 596.617 47.2361 595.577 47.2361C592.873 47.2361 594.864 53.4053 591.224 53.4053C589.828 53.4053 588.684 52.2402 588.684 49.8801C588.666 48.7479 588.981 47.6357 589.59 46.6834L590.303 47.0867C589.745 47.9143 589.455 48.8951 589.472 49.895C589.472 51.7174 590.214 52.524 591.21 52.524C593.987 52.524 592.027 46.3398 595.562 46.3398C597.047 46.3398 598.087 47.6394 598.087 50.0145C598.135 51.3603 597.714 52.6807 596.899 53.7489Z" fill="#FAFAFA"/>
<path d="M556.322 18.2566C558.299 18.2566 559.902 16.6448 559.902 14.6566C559.902 12.6684 558.299 11.0566 556.322 11.0566C554.345 11.0566 552.742 12.6684 552.742 14.6566C552.742 16.6448 554.345 18.2566 556.322 18.2566Z" fill="#E0E0E0"/>
<path d="M557.428 24.543H555.215V75.5132H557.428V24.543Z" fill="#E0E0E0"/>
<path d="M641.353 617.455C641.353 617.664 497.873 617.843 320.926 617.843C143.978 617.843 0.46875 617.694 0.46875 617.455C0.46875 617.216 143.919 617.066 320.926 617.066C497.932 617.066 641.353 617.276 641.353 617.455Z" fill="#263238"/>
<path d="M173.987 103.931C150.145 141.636 151.705 193.921 177.76 230.117C195.125 254.258 221.165 270.451 241.842 291.754C262.52 313.056 278.236 344.502 267.318 372.198C256.206 400.387 223.66 411.845 199.299 429.711C172.42 449.399 154.173 478.795 148.389 511.725C142.606 544.656 149.736 578.559 168.282 606.315H421.434C421.434 606.315 465.908 521.09 408.733 456.123C351.558 391.155 320.853 390.109 322.963 347.504C325.072 304.9 354.722 291.081 371.671 275.097C388.62 259.113 471.196 221.871 422.488 103.916L173.987 103.931Z" fill="#FAFAFA"/>
<path d="M173.987 103.931H178.339H191.174H240.58L422.489 103.797H422.682V103.976C426.41 112.907 429.586 122.062 432.189 131.388C434.922 141.153 436.723 151.157 437.566 161.266C438.442 171.832 437.903 182.469 435.962 192.89C433.83 203.694 429.967 214.077 424.524 223.634C421.703 228.509 418.515 233.158 414.987 237.542C411.386 241.984 407.49 246.177 403.326 250.09C399.109 254.075 394.692 257.84 390.091 261.369C385.486 264.954 380.673 268.33 375.979 271.916C373.632 273.693 371.523 275.695 369.235 277.697C366.947 279.699 364.675 281.566 362.328 283.448C357.648 287.213 352.925 290.917 348.468 295.085C339.167 303.193 332.02 313.502 327.672 325.082C325.583 331.021 324.265 337.207 323.75 343.486C323.617 344.98 323.409 346.623 323.349 348.207C323.29 349.79 323.231 351.374 323.349 352.957C323.383 356.137 323.701 359.306 324.3 362.428C325.478 368.754 328.046 374.736 331.816 379.936C335.697 385.136 340.091 389.925 344.933 394.233C354.544 403.061 364.749 411.502 374.508 420.614C384.268 429.727 393.819 439.228 403.029 449.281C407.728 454.258 412.123 459.516 416.19 465.026C420.282 470.606 423.838 476.563 426.811 482.818C432.823 495.496 436.516 509.159 437.714 523.152C438.926 537.34 438.095 551.629 435.249 565.578C433.865 572.625 432.049 579.58 429.812 586.402C427.613 593.282 424.932 599.996 421.79 606.495L421.686 606.704H168.075L167.971 606.539C156.099 588.564 148.819 567.922 146.773 546.442C144.716 525.808 147.725 504.982 155.538 485.791C162.963 467.447 174.396 451.017 188.99 437.719C196.072 431.431 203.721 425.82 211.836 420.958C219.739 416.028 227.716 411.457 235.247 406.467C242.786 401.728 249.711 396.068 255.865 389.617C261.742 383.28 266.102 375.677 268.61 367.388C270.809 359.3 271.154 350.816 269.62 342.575C268.155 334.622 265.517 326.933 261.792 319.764C258.23 312.86 253.958 306.351 249.047 300.344C244.306 294.58 239.153 289.173 233.628 284.165C222.918 274.246 211.94 265.567 202.077 256.648C197.13 252.167 192.451 247.685 188.128 243.099C183.939 238.609 180.077 233.821 176.572 228.773C170.235 219.514 165.351 209.332 162.088 198.582C159.231 189.299 157.573 179.684 157.157 169.975C156.949 167.764 157.038 165.583 157.038 163.447C157.038 161.31 157.038 159.234 157.231 157.217C157.424 155.2 157.528 153.229 157.677 151.242C157.825 149.255 158.226 147.477 158.479 145.67C160.12 134.666 163.468 123.989 168.402 114.03C169.07 112.489 169.834 110.992 170.689 109.548L172.516 106.426C173.482 104.768 174.002 103.931 174.002 103.931L172.516 106.471L170.749 109.548C169.914 110.999 169.16 112.495 168.491 114.03C163.602 124.014 160.294 134.704 158.687 145.715C158.434 147.507 158.137 149.36 157.914 151.257C157.692 153.154 157.617 155.141 157.469 157.157C157.32 159.174 157.32 161.251 157.305 163.372C157.29 165.493 157.231 167.674 157.439 169.885C157.869 179.562 159.541 189.142 162.415 198.388C165.674 209.099 170.554 219.242 176.884 228.459C180.38 233.487 184.237 238.25 188.426 242.711C192.733 247.312 197.413 251.793 202.359 256.155C212.223 265.118 223.155 273.708 233.94 283.642C239.508 288.686 244.701 294.134 249.478 299.94C254.416 305.992 258.713 312.546 262.297 319.495C266.057 326.708 268.721 334.448 270.2 342.455C271.756 350.785 271.41 359.361 269.19 367.537C266.67 375.923 262.269 383.615 256.326 390.02C250.141 396.509 243.187 402.208 235.618 406.99C228.057 411.994 220.081 416.566 212.193 421.495C204.111 426.345 196.493 431.936 189.436 438.197C174.931 451.427 163.565 467.763 156.176 486C148.411 505.094 145.427 525.813 147.486 546.337C149.532 567.695 156.776 588.217 168.58 606.091L168.283 605.927H421.434L421.092 606.136C424.229 599.654 426.9 592.954 429.084 586.089C431.31 579.296 433.115 572.371 434.491 565.354C437.325 551.474 438.151 537.255 436.942 523.137C435.767 509.22 432.098 495.631 426.113 483.027C423.161 476.818 419.635 470.901 415.581 465.355C411.524 459.873 407.149 454.635 402.479 449.67C393.319 439.641 383.827 430.1 374.003 421.047C364.259 411.95 354.083 403.524 344.443 394.651C339.563 390.308 335.129 385.484 331.207 380.25C327.363 374.987 324.73 368.93 323.498 362.518C322.903 359.35 322.58 356.136 322.532 352.912C322.458 351.314 322.532 349.716 322.532 348.117C322.532 346.519 322.8 344.935 322.919 343.352C323.464 337.035 324.812 330.815 326.929 324.843C331.315 313.161 338.529 302.763 347.919 294.592C352.375 290.439 357.143 286.675 361.823 282.925C364.17 281.043 366.472 279.146 368.715 277.204C370.958 275.262 373.171 273.17 375.489 271.378C380.213 267.792 385.011 264.416 389.601 260.846C394.188 257.333 398.595 253.588 402.806 249.627C406.943 245.731 410.818 241.564 414.408 237.153C417.908 232.785 421.08 228.161 423.9 223.32C429.312 213.829 433.155 203.517 435.278 192.786C437.21 182.449 437.755 171.898 436.897 161.415C436.067 151.308 434.282 141.304 431.565 131.538C428.998 122.186 425.862 113.001 422.177 104.036L422.429 104.2L240.624 104.066H191.189H178.325L173.987 103.931Z" fill="#263238"/>
<path d="M412.385 173.081C449.67 179.251 390.891 245.667 357.602 271.869C338.291 287.032 317.643 303.494 308.493 326.32C298.095 352.224 305.804 381.324 300.783 407.377C300.621 408.275 300.128 409.079 299.401 409.626C298.674 410.173 297.769 410.424 296.866 410.328C295.963 410.231 295.13 409.795 294.534 409.106C293.938 408.417 293.623 407.527 293.653 406.615C293.891 389.51 293.445 372.421 290.682 355.585C286.686 331.683 277.566 308.095 260.973 290.602C247.381 276.306 229.571 266.82 215.087 253.465C193.935 233.97 172.202 208.829 170.078 180.057C170.078 180.057 210.69 147.193 233.24 151.301C259.592 156.156 285.528 197.042 326.348 192.367C354.75 189.095 369.144 165.94 412.385 173.081Z" fill="#800080"/>
<path d="M415.704 528.547C414.768 519.165 412.272 508.559 403.998 504.137C398.992 501.448 392.887 501.747 387.391 503.196C381.895 504.645 376.74 507.17 371.303 508.798C360.495 511.994 348.953 511.623 338.371 507.737C328.255 504.003 319.58 497.281 310.147 491.933C300.715 486.585 289.767 482.671 279.309 485.285C261.276 489.766 251.888 511.636 234.062 516.91C226.13 519.24 217.618 517.926 209.567 516.103C201.516 514.281 193.42 511.905 185.176 512.219C178.7 512.458 171.97 514.714 167.44 519.165L167.321 519.3C166.567 520.043 165.881 520.853 165.271 521.72C159.745 529.189 158.854 539.093 160.562 548.146C162.464 558.289 167.172 567.656 172.223 576.634C178.165 587.21 184.938 597.727 194.772 604.778C206.923 613.487 222.179 607.482 237.048 608.662C271.704 611.411 308.989 613.278 343.659 610.589C361.975 609.095 379.132 611.157 393.66 599.848C403.879 591.901 410.534 579.92 413.743 567.342C416.951 554.764 416.996 541.469 415.704 528.547Z" fill="#800080"/>
<g opacity="0.24">
<path d="M350.281 510.588C348.335 513.576 347.488 517.639 349.375 520.686C351.261 523.734 353.831 526.527 354.633 530.038C355.926 535.535 352.628 540.913 350.177 546.007C345.64 555.115 343.927 565.383 345.26 575.481C346.665 585.612 351.868 594.82 359.803 601.22C363.323 603.954 367.898 606.075 372.147 604.73C376.143 603.476 378.712 599.397 379.574 595.259C380.436 591.121 379.708 586.864 379.188 582.696C376.769 563.271 377.269 543.591 380.673 524.316C381.238 521.105 381.772 517.43 379.752 514.875C378.295 513.388 376.444 512.351 374.419 511.888C366.695 509.303 358.362 512.171 350.355 510.648" fill="black"/>
</g>
<path d="M149.696 617.878C149.696 617.878 148.998 606.196 164.15 599.684H430.417C430.417 599.684 444.306 606.764 446.015 617.609L149.696 617.878Z" fill="#263238"/>
<path d="M424.761 105.349L424.33 105.543L173.957 103.93C173.957 103.93 173.066 103.362 171.744 102.301C170.183 101.072 169.044 99.3817 168.488 97.4681C167.931 95.5546 167.984 93.5137 168.639 91.632C169.295 89.7503 170.519 88.1222 172.142 86.9763C173.764 85.8303 175.703 85.2241 177.686 85.2426L420.706 87.2144C430.703 87.304 433.852 101.047 424.761 105.349Z" fill="#263238"/>
<g opacity="0.24">
<path d="M384.651 201.404C385.156 202.375 383.27 204.392 379.69 207.678C376.11 210.965 370.777 215.282 364.152 220.705C356.197 227.314 347.755 233.306 338.899 238.631C333.398 241.834 327.608 244.51 321.608 246.623C318.357 247.753 315.038 248.676 311.671 249.387C308.134 250.142 304.542 250.611 300.931 250.791C293.613 251.191 286.286 250.177 279.347 247.803C273.213 245.559 267.384 242.548 261.997 238.84C257.006 235.524 252.713 232.237 248.628 229.085C244.543 225.933 240.904 222.901 237.606 220.032C224.46 208.575 217.537 200.149 218.874 198.521C220.211 196.893 229.57 202.196 244.127 211.159L256.011 218.479C260.274 221.078 264.834 223.961 269.499 226.62C274.127 229.353 279.032 231.581 284.13 233.268C289.347 234.839 294.796 235.486 300.233 235.18C311.641 234.583 322.708 230.549 332.289 225.888C341.87 221.227 350.545 215.79 358.061 211.547C364.01 208.017 370.229 204.97 376.659 202.435C381.368 200.777 384.22 200.463 384.651 201.404Z" fill="black"/>
</g>
<path d="M293.833 438.588C294.885 438.167 296.06 438.18 297.103 438.624C298.147 439.067 298.974 439.906 299.406 440.959C299.839 442.012 299.842 443.194 299.414 444.248C298.987 445.303 298.163 446.146 297.122 446.595C296.081 447.044 294.906 447.062 293.851 446.646C292.797 446.23 291.948 445.413 291.488 444.372C291.028 443.331 290.995 442.15 291.395 441.084C291.794 440.018 292.596 439.154 293.625 438.678" fill="#800080"/>
<path d="M204.294 243.069C203.968 242.8 203.669 242.5 203.402 242.172L200.981 239.513C199.956 238.333 198.604 236.959 197.223 235.211L192.499 229.235C190.88 226.935 189.053 224.455 187.211 221.766L184.492 217.419C184.032 216.672 183.542 215.925 183.096 215.133L181.789 212.713C177.836 205.668 174.738 198.169 172.564 190.38C170.379 182.598 169.201 174.564 169.059 166.479C169.059 164.611 169.163 162.804 169.192 161.026C169.192 160.145 169.192 159.278 169.311 158.427C169.43 157.575 169.489 156.739 169.579 155.917C169.772 154.274 169.89 152.676 170.113 151.152C170.336 149.628 170.648 148.164 170.901 146.805C171.316 144.011 172.059 141.576 172.579 139.335C172.861 138.26 173.084 137.244 173.366 136.348L174.183 133.853L175.327 130.432C175.436 130.025 175.586 129.63 175.773 129.252C175.712 129.669 175.612 130.079 175.476 130.477C175.223 131.343 174.896 132.494 174.466 133.943L173.723 136.437C173.47 137.349 173.262 138.364 172.995 139.425C172.52 141.591 171.822 144.041 171.51 146.894C171.272 148.269 171.034 149.718 170.782 151.226C170.529 152.735 170.47 154.319 170.292 155.962C170.292 156.784 170.128 157.605 170.039 158.457C169.95 159.308 170.039 160.175 169.95 161.041C169.95 162.804 169.831 164.596 169.846 166.449C169.991 174.487 171.154 182.474 173.307 190.216C175.47 197.948 178.526 205.398 182.413 212.415C182.844 213.221 183.274 214.028 183.69 214.835C184.106 215.641 184.626 216.329 185.072 217.105L187.746 221.452C189.558 224.201 191.355 226.681 192.93 228.922L197.564 234.897C198.901 236.675 200.223 238.064 201.204 239.289L203.521 242.053C203.8 242.375 204.058 242.714 204.294 243.069Z" fill="#263238"/>
<path d="M190.191 464.994C190.265 464.822 190.354 464.656 190.459 464.501L191.35 463.097C191.751 462.469 192.241 461.722 192.836 460.826L193.771 459.332C194.143 458.839 194.574 458.346 195.004 457.838L197.975 454.253C199.119 453.013 200.426 451.729 201.808 450.324C205.011 447.223 208.415 444.338 211.998 441.69C219.886 435.714 230.061 429.739 241.083 422.733C246.879 419.141 252.45 415.195 257.765 410.916C263.466 406.349 268.502 400.999 272.723 395.022C280.45 383.084 284.648 369.185 284.83 354.942C285.018 343.333 283.085 331.788 279.126 320.882C276.503 313.522 273.211 306.421 269.292 299.669C267.91 297.264 266.781 295.442 266.009 294.202L265.133 292.798C264.939 292.484 264.85 292.305 264.85 292.305C264.983 292.439 265.098 292.589 265.192 292.753L266.143 294.127C266.96 295.322 268.133 297.115 269.544 299.52C273.585 306.235 276.968 313.33 279.645 320.703C283.711 331.654 285.725 343.268 285.587 354.957C285.524 358.327 285.251 361.69 284.77 365.025C284.289 368.514 283.559 371.964 282.587 375.348C280.558 382.513 277.403 389.306 273.243 395.47C268.979 401.512 263.888 406.918 258.121 411.529C252.775 415.811 247.174 419.762 241.35 423.36C230.284 430.307 220.094 436.222 212.206 442.153C208.624 444.766 205.21 447.605 201.986 450.653C200.604 452.042 199.282 453.297 198.124 454.522L195.153 458.033C194.707 458.57 194.276 459.063 193.905 459.526L192.94 460.946L191.454 463.171L190.503 464.531C190.412 464.693 190.308 464.848 190.191 464.994Z" fill="#263238"/>
<path d="M176.379 491.391C176.289 491.634 176.18 491.869 176.052 492.093L174.982 493.991C174.507 494.797 173.943 495.813 173.363 496.978C172.784 498.144 172.041 499.518 171.417 501.086C171.091 501.863 170.734 502.67 170.378 503.507C170.021 504.343 169.724 505.269 169.367 506.195C168.654 508.048 168.09 510.079 167.436 512.171C164.853 521.536 163.962 531.291 164.807 540.972C165.06 543.183 165.238 545.304 165.624 547.246C165.787 548.218 165.921 549.174 166.114 550.07C166.307 550.966 166.515 551.833 166.708 552.654C167.035 554.312 167.525 555.761 167.882 557.046C168.238 558.331 168.595 559.436 168.922 560.333L169.62 562.394C169.72 562.627 169.785 562.874 169.813 563.126C169.67 562.918 169.555 562.692 169.471 562.454C169.249 561.901 168.981 561.244 168.64 560.437C168.191 559.374 167.799 558.287 167.466 557.181C167.065 555.896 166.545 554.447 166.174 552.789C165.966 551.967 165.758 551.101 165.535 550.204C165.312 549.308 165.178 548.337 164.985 547.366C164.569 545.394 164.361 543.273 164.094 541.047C163.164 531.306 164.061 521.475 166.738 512.066C167.407 509.915 168.001 507.869 168.758 506.016C169.13 505.09 169.427 504.179 169.813 503.327L170.912 500.892C171.566 499.398 172.398 498.009 172.977 496.814C173.501 495.786 174.081 494.789 174.715 493.826L175.903 491.989C176.2 491.586 176.349 491.376 176.379 491.391Z" fill="#263238"/>
<path d="M360.025 527.307L359.728 527.517L358.807 528.099L355.197 530.28L352.583 531.774C351.602 532.326 350.518 532.834 349.359 533.417C347.012 534.552 344.428 536.001 341.368 537.166L336.614 539.123C334.965 539.78 333.168 540.303 331.356 540.931C327.746 542.26 323.735 543.216 319.561 544.306C301.234 548.623 282.223 549.131 263.693 545.8C259.445 544.934 255.404 544.187 251.721 543.052C249.879 542.514 248.066 542.096 246.373 541.558L241.53 539.78C238.426 538.78 235.752 537.48 233.36 536.464C232.172 535.941 231.058 535.478 230.063 534.97L227.359 533.551L223.645 531.565L222.695 531.027L222.383 530.833C222.383 530.833 222.517 530.833 222.739 530.967L223.72 531.43L227.493 533.282L230.211 534.627C231.221 535.105 232.35 535.538 233.539 536.046C235.93 537.002 238.604 538.272 241.723 539.228L246.507 540.975C248.2 541.543 250.012 541.946 251.854 542.469C255.523 543.574 259.549 544.277 263.738 545.128C282.182 548.34 301.077 547.832 319.324 543.634C323.483 542.559 327.479 541.648 331.088 540.348C332.901 539.736 334.683 539.243 336.332 538.585L341.085 536.688C344.145 535.553 346.745 534.149 349.092 533.058C350.251 532.491 351.35 531.998 352.33 531.565L354.974 530.071L358.643 528.009L359.609 527.502C359.906 527.337 360.025 527.292 360.025 527.307Z" fill="#263238"/>
<path d="M375.514 211.129C375.423 211.237 375.318 211.333 375.202 211.413L374.222 212.219C373.316 212.951 372.053 213.982 370.434 215.207C367.136 217.836 362.353 221.646 356.307 226.187C349.272 231.603 341.893 236.553 334.218 241.006C329.654 243.575 324.896 245.777 319.988 247.594C314.693 249.531 309.171 250.766 303.559 251.269C292.648 251.884 281.768 249.608 272.008 244.666C267.787 242.51 263.713 240.074 259.812 237.376C256.188 234.806 252.875 232.312 249.949 229.907C244.007 225.156 239.461 221.138 236.253 218.389L232.584 215.192L231.648 214.356L231.336 214.042C231.336 214.042 231.47 214.042 231.692 214.281L232.688 215.073L236.446 218.15C239.714 220.839 244.378 224.783 250.29 229.473C253.261 231.819 256.544 234.284 260.183 236.823C264.07 239.475 268.124 241.87 272.32 243.994C281.983 248.837 292.734 251.067 303.514 250.462C309.059 249.968 314.516 248.752 319.75 246.847C324.625 245.055 329.353 242.882 333.892 240.349C341.555 235.977 348.942 231.133 356.01 225.843C362.071 221.362 366.898 217.627 370.27 215.073L374.147 212.085L375.172 211.338C375.275 211.251 375.39 211.181 375.514 211.129Z" fill="#263238"/>
<g opacity="0.24">
<path d="M241.539 539.853C248.58 534.386 258.473 535.701 267.178 537.553C275.883 539.405 284.647 542.378 293.456 541.138C300.096 540.197 306.186 536.925 312.767 535.491C319.347 534.057 327.265 535.118 330.904 540.779C301.816 550.204 270.472 549.879 241.584 539.853" fill="black"/>
</g>
<path d="M487.146 499.309L455.209 463.292L454.882 507.077L464.508 535.162L368.815 551.848L364.76 475.915L357.867 417.655C357.458 414.182 358.203 410.67 359.988 407.667C361.772 404.665 364.495 402.341 367.731 401.059L394.068 390.602L431.204 397.443L446.133 403.15C452.392 405.547 457.972 409.45 462.384 414.518L507.304 466.175" fill="#800080"/>
<path d="M452.98 454.629C454.784 454.604 456.584 454.475 458.373 454.241C462.681 453.58 466.695 451.64 469.9 448.67C473.105 445.699 475.355 441.835 476.361 437.57C476.731 435.789 477.004 433.989 477.179 432.178C477.299 432.666 477.344 433.17 477.312 433.671C477.323 435.027 477.184 436.38 476.896 437.705C475.997 442.14 473.733 446.179 470.424 449.248C467.116 452.318 462.931 454.263 458.462 454.808C457.127 454.982 455.777 455.012 454.436 454.898C453.94 454.888 453.448 454.797 452.98 454.629Z" fill="white"/>
<path d="M455.766 505.213C455.989 505.213 456.048 490.036 455.899 471.333C455.751 452.63 455.439 437.467 455.216 437.467C454.993 437.467 454.933 452.63 455.082 471.348C455.23 490.066 455.543 505.213 455.766 505.213Z" fill="#263238"/>
<path d="M452.255 516.34L394.442 492.932C392.156 492.006 390.173 490.457 388.716 488.459C387.26 486.461 386.387 484.093 386.197 481.623L381.964 425.873C381.964 425.873 382.469 402.15 367.733 401L359.4 404.316C348.571 410.098 345.897 425.962 347.368 438.197C349.462 455.585 350.338 480.204 352.671 495.292C354.602 507.646 361.583 518.506 373.645 521.688L444.858 537.194L452.255 516.34Z" fill="#800080"/>
<path d="M382.798 434.373C382.895 434.79 382.955 435.215 382.976 435.643C383.066 436.554 383.199 437.779 383.348 439.318C383.645 442.589 384.061 447.19 384.566 452.837C385.071 458.484 385.635 465.37 386.289 472.899C386.438 474.797 386.601 476.724 386.764 478.696C386.879 480.702 387.127 482.698 387.507 484.671C387.91 486.666 388.917 488.487 390.389 489.885C391.973 491.285 393.774 492.416 395.722 493.231C411.661 500.162 426.352 505.899 437.017 509.917L449.688 514.608L453.134 515.878C453.538 516.011 453.93 516.176 454.308 516.371C453.888 516.293 453.475 516.178 453.075 516.027L449.584 514.892C446.613 513.876 442.157 512.367 436.839 510.41C426.099 506.526 411.393 500.879 395.395 493.978C393.372 493.123 391.5 491.942 389.854 490.482C388.274 488.974 387.195 487.012 386.764 484.865C386.381 482.863 386.138 480.836 386.036 478.8C385.873 476.813 385.725 474.886 385.576 472.989C384.997 465.52 384.462 458.648 384.091 452.912C383.719 447.175 383.348 442.649 383.11 439.377C383.006 437.884 382.932 436.599 382.887 435.688C382.82 435.253 382.79 434.813 382.798 434.373Z" fill="#263238"/>
<path d="M349.67 464.684C349.73 464.928 349.764 465.179 349.774 465.431L349.967 467.582C350.145 469.568 350.368 472.242 350.65 475.499C350.933 478.756 351.378 482.804 351.957 487.196C352.526 491.952 353.394 496.667 354.557 501.313C355.104 503.706 356.059 505.985 357.379 508.05C358.67 509.946 360.116 511.73 361.702 513.383C364.406 516.18 367.528 518.534 370.956 520.359C374.152 521.993 377.579 523.122 381.117 523.706C380.865 523.738 380.611 523.738 380.359 523.706C379.641 523.658 378.927 523.563 378.22 523.422C375.607 522.932 373.077 522.072 370.704 520.867C367.179 519.083 363.968 516.732 361.197 513.906C359.555 512.235 358.063 510.42 356.741 508.483C355.354 506.361 354.348 504.009 353.77 501.537C352.591 496.856 351.732 492.099 351.2 487.3C350.665 482.819 350.309 478.905 350.071 475.559C349.833 472.213 349.7 469.494 349.625 467.612C349.625 466.745 349.625 466.028 349.625 465.445C349.6 465.191 349.615 464.934 349.67 464.684Z" fill="#263238"/>
<path d="M374.387 503.687C374.539 502.598 374.897 501.549 375.441 500.595C376.633 498.215 378.284 496.097 380.299 494.365C382.314 492.634 384.652 491.324 387.177 490.512C388.2 490.119 389.29 489.932 390.385 489.96C389.413 490.367 388.421 490.726 387.414 491.035C385.026 491.964 382.811 493.293 380.863 494.964C378.92 496.639 377.268 498.628 375.976 500.849C374.936 502.567 374.506 503.732 374.387 503.687Z" fill="#263238"/>
<path d="M385.762 461.29C385.888 461.327 386.008 461.382 386.118 461.454L387.158 462.007C388.499 462.671 389.878 463.255 391.288 463.755C396.486 465.589 402.06 466.072 407.494 465.159C415.564 463.711 422.775 459.203 427.637 452.566C430.543 448.732 432.365 444.179 432.91 439.39C433.18 436.873 432.917 434.328 432.138 431.921C431.316 429.463 429.884 427.258 427.978 425.512C426.1 423.743 423.733 422.587 421.19 422.196C419.985 421.979 418.746 422.039 417.568 422.373C416.389 422.707 415.302 423.305 414.386 424.123C413.557 424.939 413.078 426.048 413.049 427.215C413.075 428.375 413.471 429.496 414.178 430.412C414.916 431.297 415.821 432.026 416.841 432.557C417.861 433.088 418.976 433.41 420.12 433.504C424.143 434.008 428.227 433.489 431.998 431.993C435.769 430.498 439.106 428.074 441.704 424.944C443.673 422.509 445.156 419.714 446.071 416.713C446.754 414.439 447.124 412.082 447.17 409.707C447.187 408.207 447.077 406.707 446.844 405.225C446.754 404.762 446.68 404.374 446.636 404.075C446.623 403.941 446.623 403.806 446.636 403.672C447.249 405.603 447.55 407.62 447.527 409.647C447.542 412.058 447.212 414.457 446.547 416.773C444.893 422.354 441.323 427.163 436.472 430.345C431.622 433.527 425.806 434.874 420.061 434.146C418.834 434.038 417.641 433.686 416.55 433.112C415.459 432.537 414.491 431.752 413.703 430.8C412.896 429.756 412.448 428.477 412.426 427.155C412.427 425.796 412.961 424.492 413.911 423.525C414.909 422.629 416.095 421.97 417.381 421.598C418.667 421.225 420.019 421.149 421.338 421.374C424.04 421.777 426.554 423.002 428.543 424.885C430.554 426.712 432.059 429.034 432.91 431.622C433.719 434.125 433.992 436.773 433.712 439.39C433.133 444.283 431.249 448.929 428.261 452.834C424.137 458.493 418.284 462.638 411.596 464.634C404.908 466.631 397.754 466.369 391.228 463.889C389.3 463.268 387.462 462.394 385.762 461.29Z" fill="white"/>
<path d="M347.887 446.428C348.138 445.98 348.459 445.577 348.837 445.233C349.787 444.222 350.832 443.307 351.957 442.499C355.749 439.879 360.16 438.307 364.747 437.943C367.263 437.658 369.808 437.764 372.293 438.257C374.312 438.678 376.266 439.372 378.101 440.318C379.333 440.942 380.515 441.661 381.636 442.469C382.07 442.736 382.461 443.069 382.795 443.455C382.706 443.574 380.983 442.26 377.863 440.811C373.797 438.915 369.287 438.191 364.836 438.72C360.366 439.075 356.051 440.526 352.269 442.947C349.402 444.874 347.991 446.532 347.887 446.428Z" fill="white"/>
<path d="M357.141 406.559C358.55 407.894 360.122 409.043 361.82 409.98C363.673 410.936 365.689 411.533 367.762 411.742C370.285 411.997 372.832 411.638 375.189 410.697C377.499 409.706 379.538 408.169 381.131 406.216C382.446 404.586 383.453 402.728 384.102 400.733C384.636 398.861 384.94 396.929 385.008 394.982C385.152 395.497 385.217 396.031 385.201 396.566C385.226 398.031 385.03 399.491 384.622 400.898C384.016 402.997 383.007 404.956 381.651 406.664C380.022 408.806 377.859 410.476 375.38 411.505C372.901 412.533 370.196 412.883 367.539 412.519C365.385 412.274 363.3 411.604 361.404 410.547C360.127 409.843 358.965 408.946 357.958 407.889C357.606 407.5 357.329 407.049 357.141 406.559Z" fill="white"/>
<path d="M407.531 498.238C407.534 497.866 407.574 497.496 407.65 497.133C407.858 496.095 408.202 495.09 408.675 494.145C410.564 490.665 413.632 487.983 417.32 486.586C422.75 484.415 428.759 484.199 434.329 485.973C437.389 486.885 440.895 488.02 443.242 491.023C443.832 491.789 444.204 492.703 444.319 493.666C444.435 494.628 444.288 495.605 443.895 496.49C442.999 498.218 441.549 499.592 439.78 500.389C438.073 501.239 436.203 501.708 434.299 501.763C432.409 501.856 430.546 501.274 429.041 500.12C428.346 499.524 427.779 498.791 427.375 497.966C426.972 497.142 426.74 496.243 426.694 495.325C426.596 493.61 426.865 491.893 427.481 490.291C429.719 484.845 433.983 480.493 439.365 478.161C442.935 476.561 446.846 475.883 450.743 476.189C452.162 476.297 453.561 476.594 454.902 477.07C454.902 477.175 453.417 476.682 450.713 476.488C447.485 476.311 444.255 476.799 441.221 477.922C438.186 479.044 435.412 480.778 433.066 483.016C430.889 485.113 429.191 487.662 428.09 490.485C427.514 491.993 427.266 493.608 427.362 495.22C427.405 496.038 427.614 496.837 427.977 497.569C428.34 498.302 428.849 498.951 429.471 499.478C430.83 500.527 432.514 501.057 434.225 500.972C436.011 500.925 437.765 500.486 439.365 499.687C440.979 498.963 442.307 497.717 443.138 496.147C443.472 495.384 443.596 494.544 443.497 493.716C443.398 492.888 443.078 492.102 442.573 491.441C441.537 490.125 440.209 489.072 438.696 488.364C437.229 487.658 435.703 487.083 434.136 486.646C428.713 484.881 422.853 485.034 417.528 487.079C413.92 488.392 410.882 490.934 408.942 494.264C408.299 495.52 407.825 496.857 407.531 498.238Z" fill="white"/>
<path d="M369.027 519.223C369.027 519.074 371.226 518.895 374.568 517.729C378.931 516.184 382.84 513.564 385.939 510.109C389.037 506.655 391.225 502.475 392.304 497.951C393.151 494.485 393.121 492.229 393.27 492.244C393.374 492.76 393.399 493.289 393.344 493.813C393.31 495.245 393.141 496.67 392.839 498.07C391.876 502.74 389.692 507.066 386.512 510.604C383.331 514.141 379.27 516.761 374.746 518.192C373.392 518.636 372 518.951 370.587 519.134C370.074 519.239 369.549 519.269 369.027 519.223Z" fill="white"/>
<path d="M350.281 475.888C350.501 475.764 350.736 475.669 350.979 475.605C351.455 475.455 352.138 475.246 353.044 475.007C355.616 474.327 358.277 474.054 360.932 474.2C362.776 474.341 364.583 474.79 366.28 475.53C368.255 476.387 369.975 477.746 371.271 479.473C372.693 481.433 373.382 483.835 373.217 486.255C373.121 487.543 372.73 488.79 372.073 489.9C371.408 491.069 370.357 491.968 369.102 492.439C368.44 492.666 367.731 492.714 367.045 492.577C366.359 492.441 365.721 492.126 365.195 491.663C364.304 490.674 363.82 489.382 363.843 488.048C363.767 485.667 364.234 483.301 365.21 481.131C366.566 478.039 368.91 475.491 371.87 473.892C374.831 472.292 378.238 471.733 381.55 472.303C382.262 472.415 382.963 472.59 383.645 472.826C384.105 473.005 384.343 473.11 384.328 473.14C384.313 473.17 383.333 472.826 381.506 472.602C378.923 472.288 376.304 472.627 373.885 473.588C370.302 475.034 367.433 477.848 365.908 481.415C365.001 483.488 364.57 485.739 364.646 488.003C364.614 489.145 365.018 490.257 365.775 491.11C366.201 491.474 366.714 491.721 367.263 491.826C367.813 491.931 368.38 491.89 368.909 491.707C370.009 491.298 370.934 490.516 371.523 489.497C372.114 488.49 372.47 487.361 372.563 486.195C372.719 483.952 372.094 481.723 370.795 479.892C369.589 478.247 367.976 476.95 366.116 476.127C364.491 475.385 362.754 474.921 360.977 474.753C358.379 474.558 355.767 474.744 353.222 475.306C351.306 475.679 350.311 475.948 350.281 475.888Z" fill="white"/>
<g opacity="0.3">
<path d="M435.635 509.695C429.455 506.185 423.409 503.481 416.948 500.538C410.486 497.595 404.143 493.786 399.909 488.049C391.933 477.234 392.839 461.623 384.684 450.957C385.218 458.128 385.748 465.303 386.273 472.483C386.763 479.056 385.768 485.57 389.972 490.036C393.522 493.801 400.444 496.684 405.346 498.312C415.195 501.584 425.801 506.439 435.635 509.695Z" fill="black"/>
</g>
<path d="M536.165 591.631C536.165 591.631 584.546 605.076 586.492 605.793C589.463 606.823 588.914 617.564 584.383 617.385C582.229 617.31 547.247 618.699 542.79 618.431C538.334 618.162 524.965 612.859 524.965 612.859L536.165 591.631Z" fill="#800080"/>
<path d="M556.265 610.198C556.863 608.41 557.577 606.663 558.404 604.97C559.445 603.403 560.587 601.906 561.82 600.488C560.099 601.436 558.67 602.842 557.69 604.552C556.71 606.262 556.217 608.21 556.265 610.183V610.198Z" fill="#263238"/>
<path d="M551.215 607.895C551.453 607.895 551.943 605.64 553.235 603.1C554.527 600.561 556.043 598.783 555.879 598.619C554.467 599.725 553.316 601.132 552.51 602.738C551.703 604.345 551.261 606.111 551.215 607.91V607.895Z" fill="#263238"/>
<path d="M546.566 606.626C546.803 604.885 547.18 603.167 547.694 601.488C548.453 599.903 549.332 598.38 550.324 596.932C548.79 597.97 547.608 599.455 546.936 601.188C546.265 602.92 546.135 604.818 546.566 606.626Z" fill="#263238"/>
<path d="M547.359 600.336C547.786 599.182 547.963 597.95 547.879 596.721C547.864 595.382 547.699 594.05 547.389 592.748C547.203 591.979 546.959 591.225 546.661 590.492C546.521 590.029 546.253 589.614 545.889 589.297C545.644 589.115 545.344 589.025 545.041 589.041C544.737 589.057 544.449 589.18 544.225 589.387C543.85 589.749 543.622 590.239 543.586 590.761C543.549 591.189 543.549 591.618 543.586 592.046C543.591 592.846 543.69 593.644 543.883 594.421C544.205 595.724 544.705 596.976 545.369 598.14C545.901 599.263 546.636 600.276 547.537 601.128C547.656 601.128 546.839 599.918 545.874 597.931C545.309 596.782 544.885 595.568 544.611 594.316C544.455 593.585 544.375 592.839 544.373 592.091C544.373 591.344 544.373 590.418 544.819 590.059C544.907 589.979 545.02 589.935 545.138 589.935C545.257 589.935 545.37 589.979 545.458 590.059C545.699 590.297 545.882 590.589 545.993 590.91C546.277 591.612 546.52 592.331 546.72 593.062C547.061 594.301 547.275 595.572 547.359 596.856C547.448 598.947 547.225 600.321 547.359 600.336Z" fill="#263238"/>
<path d="M547.295 599.845C546.31 599.431 545.241 599.257 544.176 599.337C543.019 599.337 541.867 599.477 540.744 599.755C540.053 599.913 539.384 600.159 538.754 600.487C538.358 600.69 538.037 601.017 537.842 601.418C537.646 601.82 537.586 602.274 537.669 602.713C537.781 603.133 538 603.515 538.305 603.822C538.61 604.129 538.99 604.349 539.407 604.461C540.119 604.64 540.864 604.64 541.576 604.461C542.721 604.198 543.796 603.688 544.725 602.967C545.606 602.374 546.367 601.619 546.968 600.741C546.075 601.267 545.216 601.851 544.399 602.489C543.5 603.109 542.491 603.55 541.428 603.789C540.838 603.938 540.22 603.938 539.63 603.789C539.351 603.718 539.096 603.574 538.89 603.372C538.684 603.17 538.534 602.917 538.457 602.638C538.412 602.365 538.457 602.083 538.586 601.838C538.714 601.593 538.919 601.396 539.17 601.279C539.721 600.974 540.311 600.743 540.923 600.592C541.989 600.286 543.084 600.096 544.191 600.024C546.077 599.785 547.265 599.98 547.295 599.845Z" fill="#263238"/>
<path d="M563.695 610.722C563.903 609.235 564.226 607.767 564.661 606.331C565.34 604.996 566.13 603.722 567.023 602.521C565.614 603.294 564.513 604.532 563.907 606.026C563.301 607.52 563.226 609.179 563.695 610.722Z" fill="#263238"/>
<path d="M529.945 612.978C530.531 613.351 531.16 613.652 531.817 613.874C533.573 614.545 535.369 615.103 537.194 615.547C543.261 616.878 549.466 617.47 555.673 617.31C562.922 617.22 569.458 616.892 574.197 616.698L579.797 616.399C580.485 616.387 581.171 616.317 581.847 616.19C581.164 616.082 580.472 616.047 579.782 616.085H574.182L555.673 616.444C549.523 616.602 543.373 616.102 537.328 614.95C532.693 614.009 530.005 612.814 529.945 612.978Z" fill="#263238"/>
<path d="M528.52 614.082C528.52 614.187 529.901 613.41 532.144 612.424C534.994 611.071 538.165 610.553 541.294 610.931C544.372 611.601 547.15 613.258 549.212 615.651C550.07 616.671 550.998 617.629 551.99 618.519C551.352 617.331 550.558 616.236 549.628 615.262C548.674 614.148 547.598 613.145 546.419 612.275C544.943 611.176 543.226 610.449 541.413 610.154C538.13 609.754 534.804 610.385 531.891 611.961C530.661 612.481 529.522 613.197 528.52 614.082Z" fill="#263238"/>
<path d="M484.76 578.199C484.76 578.199 438.978 608.345 437.344 609.57C434.878 611.437 437.701 620.356 441.979 618.817C443.999 618.085 482.413 607.329 486.542 605.716C490.672 604.103 501.798 595.05 501.798 595.05L484.76 578.199Z" fill="#800080"/>
<path d="M471.167 602.04C470.615 600.144 469.555 598.438 468.104 597.108C466.652 595.777 464.865 594.874 462.938 594.496C464.547 595.467 466.091 596.545 467.557 597.723C468.849 599.085 470.054 600.526 471.167 602.04Z" fill="#263238"/>
<path d="M475.263 598.307C474.68 596.602 473.729 595.048 472.479 593.756C471.228 592.465 469.708 591.468 468.028 590.838C467.91 591.047 469.915 592.332 471.891 594.303C473.866 596.275 475.055 598.426 475.263 598.307Z" fill="#263238"/>
<path d="M479.392 595.649C479.386 593.769 478.675 591.961 477.402 590.585C476.337 589.067 474.749 588.002 472.945 587.598C474.323 588.679 475.619 589.863 476.822 591.138C477.796 592.571 478.656 594.079 479.392 595.649Z" fill="#263238"/>
<path d="M476.747 589.929C476.866 589.929 476.242 588.629 475.722 586.478C475.41 585.231 475.226 583.955 475.173 582.669C475.122 581.913 475.122 581.155 475.173 580.399C475.167 580.058 475.255 579.722 475.425 579.428C475.49 579.326 475.591 579.254 475.707 579.226C475.824 579.198 475.946 579.217 476.049 579.278C476.569 579.488 476.837 580.384 477.089 581.101C477.307 581.812 477.456 582.542 477.535 583.282C477.65 584.562 477.61 585.851 477.416 587.121C477.104 589.302 476.673 590.631 476.792 590.676C477.404 589.607 477.807 588.431 477.98 587.21C478.265 585.902 478.365 584.559 478.277 583.222C478.218 582.422 478.073 581.631 477.847 580.862C477.724 580.449 477.575 580.045 477.401 579.652C477.203 579.163 476.833 578.764 476.361 578.532C476.086 578.403 475.774 578.375 475.481 578.455C475.187 578.534 474.931 578.714 474.757 578.965C474.511 579.38 474.383 579.855 474.386 580.339C474.222 582.467 474.464 584.606 475.099 586.643C475.411 587.843 475.973 588.963 476.747 589.929Z" fill="#263238"/>
<path d="M476.59 589.434C476.59 589.553 477.719 589.016 479.561 588.552C480.637 588.293 481.737 588.143 482.844 588.104C483.475 588.061 484.109 588.101 484.73 588.224C485.004 588.262 485.258 588.386 485.456 588.58C485.653 588.773 485.784 589.026 485.829 589.299C485.842 589.596 485.775 589.891 485.637 590.154C485.499 590.416 485.293 590.637 485.042 590.793C484.531 591.116 483.95 591.311 483.349 591.361C482.263 591.468 481.167 591.356 480.125 591.032C479.157 590.667 478.164 590.373 477.154 590.151C477.992 590.824 478.95 591.331 479.977 591.645C481.079 592.069 482.26 592.248 483.438 592.167C484.17 592.129 484.881 591.902 485.503 591.51C485.87 591.283 486.17 590.961 486.371 590.577C486.573 590.194 486.668 589.763 486.646 589.329C486.594 588.884 486.399 588.469 486.091 588.145C485.782 587.822 485.378 587.608 484.938 587.537C484.242 587.413 483.533 587.383 482.829 587.447C481.674 587.525 480.532 587.74 479.427 588.089C478.391 588.312 477.42 588.772 476.59 589.434Z" fill="#263238"/>
<path d="M447.804 617.159C447.804 617.233 448.576 616.695 448.932 615.381C449.288 613.663 448.98 611.874 448.071 610.377C447.631 609.575 447.134 608.807 446.585 608.076C446.139 607.454 445.615 606.892 445.026 606.403C444.604 606.053 444.086 605.839 443.54 605.791C443.154 605.791 442.961 605.866 442.961 605.91C442.961 605.955 443.778 605.985 444.625 606.852C445.124 607.36 445.567 607.921 445.947 608.525C446.48 609.246 446.975 609.993 447.432 610.765C448.253 612.105 448.608 613.682 448.442 615.247C448.268 615.896 448.055 616.535 447.804 617.159Z" fill="#263238"/>
<path d="M464.242 604.805C464.304 603.997 464.191 603.184 463.912 602.424C463.632 601.663 463.193 600.973 462.623 600.399C462.166 599.731 461.568 599.172 460.873 598.761C460.177 598.351 459.401 598.099 458.598 598.023C459.812 598.89 460.95 599.86 461.999 600.921C462.854 602.15 463.605 603.449 464.242 604.805Z" fill="#263238"/>
<path d="M497.083 596.65C496.371 597.049 495.695 597.508 495.062 598.025C493.248 599.291 491.363 600.453 489.418 601.505C486.538 603.041 483.561 604.383 480.505 605.523C477.029 606.823 473.078 608.048 469.037 609.243C460.793 611.633 453.336 613.814 447.959 615.442L441.556 617.459C440.766 617.669 439.996 617.949 439.254 618.295C440.064 618.184 440.863 618.01 441.645 617.772L448.078 615.965C453.499 614.471 460.971 612.38 469.215 609.99C473.33 608.78 477.237 607.525 480.713 606.181C483.806 604.998 486.81 603.59 489.7 601.968C491.641 600.863 493.498 599.614 495.255 598.234C495.907 597.758 496.518 597.228 497.083 596.65Z" fill="#263238"/>
<path d="M498.778 597.262C497.547 596.716 496.239 596.364 494.901 596.216C491.647 595.61 488.286 596.027 485.276 597.411C483.648 598.267 482.252 599.508 481.206 601.026C480.344 602.224 479.621 603.517 479.052 604.88C478.456 606.089 478.031 607.376 477.789 608.704C478.462 607.55 479.057 606.352 479.572 605.119C480.81 602.202 482.958 599.77 485.692 598.188C488.567 596.887 491.748 596.426 494.872 596.858C497.249 597.052 498.749 597.381 498.778 597.262Z" fill="#263238"/>
<path d="M579.904 504.688C579.904 504.688 593.644 509.618 593.689 525.109C593.808 554.762 534.093 587.462 534.093 587.462L454.621 534.52L449.645 532.488C449.645 532.488 556.969 491.975 579.904 504.688Z" fill="#263238"/>
<path d="M494.875 561.263C495.607 560.855 496.302 560.385 496.955 559.858C498.247 558.902 500.104 557.498 502.377 555.72C506.937 552.195 513.116 547.176 519.786 541.424C526.456 535.673 532.308 530.28 536.468 526.292C538.547 524.305 540.211 522.662 541.355 521.511C541.972 520.951 542.539 520.336 543.048 519.674C542.365 520.155 541.723 520.695 541.132 521.287L536.081 525.873C531.818 529.742 525.906 535.075 519.251 540.812C512.596 546.548 506.476 551.627 502.035 555.272L496.762 559.604C496.09 560.106 495.459 560.66 494.875 561.263Z" fill="#455A64"/>
<path d="M557.472 515.77C552.275 515.217 547.072 516.759 543.004 520.058C543.138 520.282 545.975 518.414 550.045 517.249C554.115 516.084 557.472 516.024 557.472 515.77Z" fill="#455A64"/>
<path d="M550.627 511.098C548.788 511.882 547.171 513.111 545.917 514.674C544.663 516.237 543.811 518.087 543.438 520.06C543.675 520.06 544.537 517.655 546.542 515.191C548.547 512.726 550.761 511.307 550.627 511.098Z" fill="#455A64"/>
<path d="M584.266 605.03C584.266 604.941 583.316 604.747 582.216 605.658C580.921 606.872 580.108 608.517 579.929 610.288C579.668 612.03 579.916 613.81 580.642 615.412C581.206 616.622 581.83 617.19 581.904 617.13C581.709 616.466 581.465 615.817 581.177 615.188C580.656 613.652 580.504 612.014 580.731 610.408C580.907 608.808 581.56 607.298 582.603 606.076C583.449 605.195 584.281 605.165 584.266 605.03Z" fill="#263238"/>
<path d="M561.615 456.211L533.317 528.364L411.465 530.366L409.207 523.733L451.914 522.179L472.443 458.168L561.615 456.211Z" fill="#455A64"/>
<path d="M504.709 487.497C505.644 487.025 506.696 486.834 507.737 486.948C508.777 487.062 509.763 487.476 510.576 488.14C511.266 488.792 511.744 489.639 511.948 490.569C512.152 491.499 512.073 492.469 511.72 493.353C511.338 494.235 510.718 494.993 509.931 495.539C509.143 496.086 508.219 496.399 507.264 496.445C506.257 496.51 505.258 496.243 504.416 495.685C503.574 495.127 502.936 494.308 502.599 493.353C502.281 492.284 502.308 491.142 502.676 490.09C503.045 489.037 503.735 488.13 504.649 487.497" fill="#EBEBEB"/>
<path d="M541.608 591.078C541.608 591.078 429.337 517.013 424.762 515.474C420.187 513.935 409.046 506.615 397.949 509.693C386.853 512.77 376.871 522.794 371.894 537.434C369.042 545.799 367.705 560.066 367.067 570.776C366.216 583.584 370.343 596.224 378.579 606.031C382.227 610.608 387.073 614.069 392.572 616.025C393.745 616.399 394.964 616.712 396.211 616.981C417.438 621.612 439.289 612.022 451.173 593.767L453.788 589.763C453.788 589.763 527.243 616.892 528.387 616.518L541.608 591.078Z" fill="#263238"/>
<path d="M402.719 570.686C402.917 570.787 403.12 570.876 403.328 570.955L405.17 571.687L412.285 574.451L438.741 584.474C449.971 588.687 463.429 593.706 478.536 599.234C493.643 604.761 510.37 610.811 528.254 616.891L528.566 617.011L528.73 616.697L537.509 599.846L541.965 591.256L542.129 590.928L541.817 590.734L456.18 536.059L430.452 519.746L423.471 515.354L421.643 514.234C421.227 513.98 421.005 513.875 421.005 513.875L421.599 514.308L423.381 515.488L430.289 519.97L455.957 536.537L541.46 591.421L541.312 590.883C539.9 593.617 538.341 596.53 536.855 599.473L528.091 616.323L528.581 616.129C510.756 610.064 493.97 604.029 478.848 598.546L438.994 583.966L412.389 574.137L405.229 571.508L403.357 570.85L402.719 570.686Z" fill="#455A64"/>
<path d="M414.365 307.694C416.282 302.48 420.515 300.225 425.878 298.925C428.575 298.294 431.384 298.327 434.066 299.021C436.748 299.715 439.223 301.051 441.282 302.913C444 305.408 445.991 308.889 449.348 310.383C454.889 312.907 461.974 309.217 467.173 312.31C468.735 313.235 469.93 314.676 470.555 316.387C471.18 318.098 471.196 319.974 470.601 321.696C470.005 323.418 468.836 324.879 467.29 325.831C465.744 326.784 463.918 327.168 462.123 326.92C465.732 328.623 466.401 334.09 463.92 337.227C461.439 340.364 456.849 341.216 453.002 340.125C449.21 338.812 445.846 336.482 443.272 333.388C440.569 330.4 438.192 327.189 435.251 324.425C432.428 321.54 428.682 319.752 424.674 319.376C419.282 319.167 414.276 322.826 411.469 327.442C408.661 332.058 407.577 337.541 406.79 342.919C406.002 348.297 405.408 353.764 403.343 358.783C403.106 359.381 402.749 360.023 402.14 360.158C401.234 360.352 400.58 359.351 400.224 358.5C396.159 348.906 394.009 338.602 393.896 328.174C393.822 322.199 394.505 316.478 398.233 311.742C401.962 307.007 410.563 304.064 414.321 307.619" fill="#263238"/>
<path d="M401.706 331.79L393.447 392.112C393.116 394.548 393.281 397.026 393.933 399.396C394.585 401.766 395.709 403.977 397.238 405.896C398.766 407.815 400.667 409.401 402.825 410.557C404.982 411.713 407.351 412.416 409.787 412.623C414.399 413.026 418.989 411.63 422.606 408.724C426.223 405.818 428.59 401.625 429.217 397.012C429.826 392.53 430.346 388.691 430.45 388.228C430.45 388.228 445.913 388.9 449.092 373.857C450.578 366.582 452.583 351.345 454.202 337.542C455.019 330.399 453.135 323.208 448.925 317.397C444.715 311.585 438.486 307.578 431.475 306.171L429.989 305.887C414.169 303.616 403.474 315.866 401.706 331.79Z" fill="#FFBE9D"/>
<path d="M430.431 388.018C423.478 386.735 417.061 383.402 411.996 378.443C411.996 378.443 414.462 390.214 429.688 391.887L430.431 388.018Z" fill="#EB996E"/>
<path d="M447.741 346.774C447.636 347.336 447.316 347.834 446.849 348.161C446.382 348.488 445.807 348.618 445.246 348.522C444.97 348.491 444.702 348.404 444.46 348.266C444.218 348.129 444.006 347.944 443.837 347.722C443.668 347.5 443.545 347.246 443.475 346.976C443.406 346.705 443.392 346.423 443.434 346.147C443.535 345.582 443.854 345.08 444.321 344.75C444.788 344.42 445.366 344.288 445.929 344.384C446.206 344.417 446.474 344.505 446.716 344.644C446.958 344.783 447.17 344.97 447.339 345.193C447.508 345.416 447.631 345.671 447.7 345.942C447.769 346.214 447.783 346.497 447.741 346.774Z" fill="#263238"/>
<path d="M449.434 344.293C449.107 344.532 447.726 342.993 445.423 342.53C443.121 342.067 441.19 342.904 440.967 342.53C440.744 342.157 441.249 341.933 442.096 341.544C443.224 341.04 444.483 340.909 445.69 341.171C446.89 341.402 447.984 342.014 448.81 342.919C449.449 343.636 449.582 344.203 449.434 344.293Z" fill="#263238"/>
<path d="M424.982 343.01C424.881 343.575 424.562 344.077 424.095 344.407C423.628 344.737 423.05 344.868 422.487 344.773C422.21 344.738 421.943 344.648 421.702 344.509C421.46 344.369 421.248 344.183 421.078 343.961C420.908 343.739 420.783 343.485 420.712 343.214C420.64 342.943 420.622 342.66 420.66 342.383C420.772 341.823 421.093 341.328 421.558 341C422.022 340.672 422.594 340.536 423.155 340.62C423.433 340.653 423.701 340.741 423.944 340.88C424.187 341.019 424.399 341.205 424.57 341.428C424.74 341.651 424.864 341.905 424.935 342.177C425.006 342.449 425.022 342.732 424.982 343.01Z" fill="#263238"/>
<path d="M426.692 340.185C426.365 340.409 424.983 338.871 422.681 338.408C420.378 337.945 418.447 338.781 418.225 338.408C418.002 338.034 418.507 337.81 419.353 337.422C420.484 336.925 421.74 336.794 422.948 337.048C424.147 337.293 425.242 337.903 426.083 338.796C426.706 339.603 426.84 340.081 426.692 340.185Z" fill="#263238"/>
<path d="M431.637 359.022C432.927 358.877 434.23 358.902 435.514 359.097C436.123 359.097 436.702 359.097 436.88 358.753C437.069 358.16 437.069 357.523 436.88 356.931C436.613 355.437 436.331 353.764 436.034 352.061C434.89 345.16 434.192 339.543 434.459 339.498C434.726 339.454 435.945 345.01 437.029 351.911C437.296 353.614 437.564 355.228 437.801 356.781C438.034 357.572 437.976 358.42 437.638 359.171C437.512 359.36 437.345 359.517 437.149 359.631C436.953 359.745 436.735 359.813 436.509 359.828C436.169 359.877 435.824 359.877 435.484 359.828C434.173 359.722 432.881 359.451 431.637 359.022Z" fill="#263238"/>
<path d="M424.537 359.293C424.924 359.293 424.419 361.863 426.201 364.073C427.984 366.284 430.657 366.553 430.657 366.912C430.657 367.27 429.974 367.27 428.845 367.076C427.374 366.803 426.044 366.021 425.087 364.865C424.18 363.745 423.738 362.316 423.854 360.877C423.973 359.801 424.374 359.234 424.537 359.293Z" fill="#263238"/>
<path d="M429.083 331.206C428.741 331.803 426.498 331.041 423.72 330.817C420.943 330.593 418.625 330.907 418.373 330.265C418.269 329.966 418.774 329.458 419.769 329.025C421.09 328.501 422.515 328.296 423.928 328.427C425.351 328.536 426.726 328.987 427.939 329.742C428.845 330.339 429.217 330.937 429.083 331.206Z" fill="#263238"/>
<path d="M449.906 337.422C449.401 337.87 447.93 337.004 446.014 336.586C444.098 336.168 442.419 336.242 442.167 335.615C442.048 335.316 442.405 334.838 443.222 334.48C444.285 334.058 445.454 333.98 446.564 334.256C447.684 334.493 448.699 335.084 449.46 335.943C450.01 336.616 450.144 337.198 449.906 337.422Z" fill="#263238"/>
<path d="M400.708 343.203C400.471 343.039 391.008 338.064 389.285 348.446C387.562 358.828 398.287 358.424 398.346 358.126C398.406 357.827 400.708 343.203 400.708 343.203Z" fill="#FFBE9D"/>
<path d="M395.851 353.658C395.851 353.658 395.658 353.762 395.331 353.852C394.873 353.962 394.389 353.893 393.98 353.658C393.378 353.124 392.931 352.437 392.685 351.67C392.439 350.902 392.404 350.082 392.583 349.296C392.702 348.399 393.022 347.541 393.519 346.786C393.66 346.476 393.872 346.205 394.138 345.995C394.404 345.784 394.717 345.641 395.049 345.576C395.267 345.558 395.484 345.616 395.663 345.742C395.842 345.867 395.971 346.052 396.029 346.263C396.119 346.562 396.029 346.771 396.029 346.786C396.029 346.801 396.282 346.652 396.267 346.219C396.251 345.953 396.147 345.7 395.97 345.502C395.85 345.368 395.703 345.26 395.54 345.185C395.376 345.111 395.199 345.071 395.019 345.068C394.583 345.081 394.158 345.206 393.784 345.431C393.409 345.656 393.098 345.973 392.88 346.353C392.29 347.18 391.908 348.138 391.766 349.146C391.484 351.253 392.227 353.389 393.653 354.061C393.917 354.189 394.206 354.256 394.499 354.256C394.793 354.256 395.082 354.189 395.346 354.061C395.792 353.911 395.881 353.687 395.851 353.658Z" fill="#EB996E"/>
<path d="M457.912 335.122C454.421 335.311 450.936 334.665 447.742 333.237C444.547 331.809 441.736 329.639 439.537 326.906C436.566 323.052 434.59 318.017 430.297 315.687C428.819 314.955 427.211 314.526 425.566 314.423C423.922 314.321 422.273 314.547 420.716 315.089C417.617 316.204 414.776 317.942 412.368 320.198C413.735 328.444 410.095 336.631 406.545 344.1C406.239 344.981 405.648 345.733 404.866 346.236C403.47 346.938 401.806 345.833 400.96 344.503C399.773 342.275 399.257 339.747 399.474 337.228C399.506 331.489 400.667 325.813 402.891 320.527C405.149 315.226 408.903 310.707 413.69 307.53C419.829 303.761 427.184 302.534 434.204 304.11C441.185 305.743 447.478 309.542 452.193 314.97C454.491 317.376 456.16 320.317 457.05 323.53" fill="#263238"/>
<path d="M88.1952 578.401C88.2602 578.182 88.3499 577.972 88.4625 577.774L89.2944 575.966C90.3188 573.629 91.1485 571.211 91.7751 568.736C93.4091 562.312 93.9736 552.498 91.5523 540.846C90.2496 534.49 88.5327 528.227 86.4126 522.098C84.229 515.45 81.7037 508.399 79.639 500.766C77.3077 492.804 76.181 484.535 76.2967 476.237C76.6086 467.557 79.1636 458.893 81.9711 450.273C84.7786 441.654 87.6753 433.199 88.5368 424.714C89.5105 416.549 87.8825 408.285 83.8873 401.111C80.1589 394.209 75.4945 388.323 72.0037 382.214C68.7318 376.556 66.3186 370.438 64.8438 364.063C62.7397 354.822 62.5879 345.239 64.3982 335.934C65.0641 332.533 66.0592 329.206 67.3691 326C67.3342 326.228 67.2796 326.453 67.2057 326.672L66.6115 328.569C63.1164 340.042 62.742 352.247 65.5271 363.914C67.0157 370.216 69.4341 376.258 72.7019 381.84C76.1927 387.816 80.8867 393.791 84.6746 400.707C88.7318 408.023 90.39 416.44 89.4132 424.759C88.5368 433.393 85.6105 441.893 82.8178 450.512C80.0252 459.132 77.485 467.692 77.1731 476.222C77.0438 484.436 78.1403 492.624 80.4262 500.512C82.4613 508.1 84.9717 515.151 87.1108 521.829C89.213 527.993 90.9052 534.291 92.1762 540.681C94.538 552.423 93.8547 562.342 92.1762 568.781C91.5214 571.264 90.6362 573.679 89.5321 575.996C89.1459 576.743 88.8339 577.326 88.6111 577.774C88.4928 577.996 88.3536 578.206 88.1952 578.401Z" fill="#263238"/>
<path d="M76.7475 388.238C76.7475 388.238 69.6322 365.382 82.3922 351.997C82.4911 351.889 82.6177 351.811 82.758 351.772C82.8983 351.732 83.0468 351.732 83.187 351.773C83.3271 351.813 83.4534 351.892 83.5517 352C83.65 352.108 83.7166 352.241 83.744 352.385C84.4273 356.165 85.274 367.667 76.7475 388.238Z" fill="#800080"/>
<path d="M81.0064 359.615C80.9825 361.032 80.8183 362.444 80.5162 363.828C80.0557 366.816 79.5061 370.147 78.897 373.911C78.288 377.676 77.7681 381.097 77.3076 383.995C77.1875 385.41 76.9338 386.811 76.55 388.178C76.4299 386.758 76.4748 385.329 76.6837 383.92C76.9214 381.306 77.3819 377.721 78.0206 373.777C78.6594 369.833 79.3427 366.308 79.9071 363.723C80.1155 362.316 80.4843 360.938 81.0064 359.615Z" fill="#263238"/>
<path d="M85.0977 442.162C85.0977 442.162 89.45 418.604 106.949 412.808C107.087 412.759 107.235 412.751 107.378 412.782C107.52 412.814 107.652 412.885 107.756 412.987C107.861 413.09 107.936 413.219 107.971 413.362C108.007 413.504 108.003 413.654 107.959 413.794C106.83 417.409 102.21 427.985 85.0977 442.162Z" fill="#800080"/>
<path d="M102.178 418.857C101.499 420.1 100.698 421.271 99.7866 422.353C98.0338 424.713 95.9541 427.462 93.6665 430.509L87.5167 438.68C86.749 439.869 85.8738 440.984 84.9023 442.011C85.4546 440.698 86.1576 439.455 86.9968 438.306C88.4823 436.11 90.4877 433.153 92.9387 429.971C95.3897 426.789 97.603 423.996 99.2815 421.964C100.125 420.82 101.097 419.777 102.178 418.857Z" fill="#263238"/>
<path d="M80.3699 501.244C80.3699 501.244 77.7258 477.432 92.7883 466.736C92.907 466.65 93.0471 466.598 93.1929 466.588C93.3388 466.577 93.4847 466.608 93.6143 466.676C93.7438 466.745 93.8519 466.848 93.9265 466.974C94.001 467.101 94.0389 467.246 94.0361 467.393C93.9916 471.217 92.6398 482.675 80.3699 501.244Z" fill="#800080"/>
<path d="M89.9836 473.951C89.7011 475.342 89.2729 476.699 88.7061 478C87.696 480.763 86.5225 483.975 85.2005 487.59L81.7394 497.181C81.3712 498.545 80.8738 499.871 80.2539 501.139C80.4111 499.724 80.725 498.331 81.1897 496.986C81.9176 494.462 83.0466 491.011 84.428 487.276C85.8095 483.542 87.1613 480.181 88.1862 477.775C88.6395 476.436 89.2425 475.153 89.9836 473.951Z" fill="#263238"/>
<path d="M93.5485 560.697C93.5485 560.697 91.7511 536.795 107.185 526.667C107.306 526.584 107.447 526.536 107.593 526.529C107.74 526.521 107.885 526.555 108.013 526.627C108.141 526.698 108.247 526.804 108.318 526.933C108.39 527.061 108.424 527.207 108.418 527.354C108.225 531.164 106.472 542.562 93.5485 560.697Z" fill="#800080"/>
<path d="M104.123 533.811C103.766 535.193 103.268 536.535 102.637 537.814C101.523 540.533 100.231 543.789 98.7898 547.255L94.9722 556.726C94.5829 558.044 94.0758 559.324 93.457 560.55C93.6567 559.143 94.0207 557.764 94.5414 556.442C95.3436 553.948 96.6062 550.557 98.1214 546.867C99.6365 543.177 101.092 539.861 102.206 537.5C102.708 536.203 103.351 534.966 104.123 533.811Z" fill="#263238"/>
<path d="M66.525 368.155C66.525 368.155 45.4167 357.071 45.0008 338.532C44.9943 338.385 45.0288 338.239 45.1003 338.11C45.1718 337.982 45.2776 337.876 45.4057 337.804C45.5337 337.733 45.6791 337.699 45.8254 337.706C45.9717 337.713 46.1131 337.761 46.2337 337.845C49.368 340.026 58.0579 347.54 66.525 368.155Z" fill="#800080"/>
<path d="M49.3789 344.896C50.3656 345.909 51.2466 347.02 52.0082 348.213L57.95 356.488L63.8918 364.749C64.797 365.833 65.6024 366.998 66.2982 368.229C65.1812 367.33 64.1829 366.29 63.3273 365.137C61.6488 363.135 59.4354 360.267 57.1181 357.026C54.8008 353.784 52.7806 350.782 51.3694 348.571C50.5687 347.427 49.9009 346.194 49.3789 344.896Z" fill="#263238"/>
<path d="M89.1901 417.289C89.1901 417.289 67.4579 407.52 65.913 389.041C65.9007 388.896 65.9284 388.75 65.9932 388.619C66.058 388.489 66.1573 388.379 66.2802 388.302C66.4031 388.225 66.5447 388.183 66.6896 388.182C66.8345 388.18 66.977 388.219 67.1014 388.294C70.3694 390.221 79.5049 397.197 89.1901 417.289Z" fill="#800080"/>
<path d="M70.6836 395.088C71.7266 396.041 72.6721 397.097 73.506 398.24L79.9528 406.142L86.4146 414.014C87.3789 415.018 88.2445 416.114 88.9992 417.285C87.8665 416.408 86.8351 415.406 85.9244 414.298C84.127 412.386 81.7502 409.667 79.2398 406.575C76.7294 403.483 74.5309 400.6 73.0009 398.494C72.1029 397.45 71.3255 396.308 70.6836 395.088Z" fill="#263238"/>
<path d="M76.6891 472.023C76.6891 472.023 61.7603 453.35 68.7717 436.171C68.825 436.035 68.9146 435.917 69.0306 435.829C69.1465 435.741 69.2844 435.687 69.4289 435.674C69.5734 435.66 69.7189 435.686 69.8493 435.75C69.9797 435.814 70.09 435.913 70.168 436.036C72.1734 439.338 77.1199 449.72 76.6891 472.023Z" fill="#800080"/>
<path d="M70.2355 443.805C70.7352 445.128 71.0986 446.5 71.3199 447.898C71.9438 450.781 72.6717 454.157 73.4887 457.892C74.3057 461.626 74.9741 464.988 75.6723 467.856C76.0697 469.217 76.3431 470.612 76.4893 472.024C75.8297 470.757 75.3306 469.412 75.0038 468.02C74.2611 465.495 73.3847 462.045 72.5528 458.071C71.721 454.097 71.0674 450.602 70.6515 448.032C70.3595 446.643 70.22 445.225 70.2355 443.805Z" fill="#263238"/>
<path d="M91.4753 536.468C91.4753 536.468 69.8916 526.34 68.6736 507.816C68.6642 507.672 68.6941 507.528 68.7601 507.4C68.8261 507.272 68.9256 507.165 69.048 507.089C69.1703 507.014 69.3108 506.974 69.4542 506.973C69.5977 506.972 69.7387 507.01 69.8619 507.084C73.1002 509.131 82.1169 516.256 91.4753 536.468Z" fill="#800080"/>
<path d="M73.332 513.986C74.3634 514.954 75.2941 516.025 76.1098 517.183C77.9221 519.498 80.0611 522.202 82.423 525.19L88.751 533.181C89.7025 534.226 90.5577 535.356 91.306 536.557C90.2009 535.684 89.2035 534.681 88.3351 533.57C86.5823 531.643 84.2501 528.879 81.7991 525.742C79.3481 522.605 77.1199 519.707 75.6345 517.571C74.7416 516.463 73.9697 515.261 73.332 513.986Z" fill="#263238"/>
<path d="M134.456 442.279C134.477 442.458 134.477 442.638 134.456 442.817C134.456 443.235 134.456 443.728 134.456 444.311C134.456 445.805 134.308 447.702 134.204 450.122C133.922 455.231 133.535 462.342 133.075 470.872C131.59 479.536 127.133 489.141 121.191 498.463C116.869 505.335 112.279 511.594 108.431 517.405C104.874 522.478 101.673 527.794 98.8502 533.315C97.0045 537.06 95.5125 540.971 94.3938 544.996C94.0076 546.416 93.7253 547.536 93.5619 548.298C93.4964 548.691 93.3919 549.076 93.25 549.448C93.2548 549.051 93.2996 548.656 93.3837 548.268C93.4877 547.491 93.7253 546.356 94.0521 544.907C95.0602 540.788 96.4837 536.784 98.3005 532.956C101.061 527.369 104.224 521.992 107.763 516.867C111.64 511.011 116.156 504.752 120.464 497.925C126.405 488.634 130.683 479.177 132.347 470.648C132.941 462.148 133.432 455.037 133.833 449.928C134.026 447.508 134.189 445.566 134.293 444.132C134.293 443.534 134.412 443.026 134.456 442.638C134.444 442.519 134.444 442.398 134.456 442.279Z" fill="#263238"/>
<path d="M121.676 496.763C121.676 496.763 130.811 474.639 119.314 460.148C119.225 460.032 119.105 459.943 118.969 459.891C118.832 459.839 118.684 459.826 118.541 459.854C118.397 459.882 118.265 459.95 118.157 460.049C118.05 460.148 117.972 460.276 117.932 460.417C116.848 464.122 114.962 475.55 121.676 496.763Z" fill="#800080"/>
<path d="M119.941 467.873C120.335 469.236 120.579 470.639 120.669 472.056C120.996 474.655 121.353 478.255 121.635 482.244C121.917 486.233 122.051 489.848 122.051 492.462C122.142 493.881 122.057 495.306 121.798 496.704C121.54 495.315 121.416 493.905 121.427 492.492C121.234 489.504 120.996 486.113 120.743 482.304C120.491 478.494 120.238 475.044 120.045 472.116C119.872 470.708 119.837 469.287 119.941 467.873Z" fill="#263238"/>
<g opacity="0.3">
<path d="M121.68 496.767C121.68 496.767 130.815 474.643 119.318 460.152C119.229 460.036 119.109 459.947 118.973 459.895C118.836 459.843 118.688 459.83 118.545 459.858C118.401 459.886 118.269 459.954 118.161 460.053C118.054 460.152 117.976 460.28 117.936 460.421C116.852 464.126 114.965 475.554 121.68 496.767Z" fill="black"/>
</g>
<path d="M93.3087 550.063C93.3087 550.063 100.632 527.281 88.0056 513.777C87.9078 513.669 87.7823 513.591 87.643 513.551C87.5037 513.51 87.356 513.509 87.2162 513.548C87.0764 513.586 86.9499 513.663 86.8507 513.769C86.7515 513.876 86.6834 514.008 86.6539 514.15C85.926 517.915 84.9753 529.403 93.3087 550.063Z" fill="#800080"/>
<path d="M89.3086 521.395C89.8133 522.725 90.1671 524.108 90.3633 525.518C90.898 528.072 91.5516 531.627 92.1607 535.586C92.7697 539.545 93.1856 543.13 93.3936 545.744C93.5954 547.155 93.6254 548.584 93.4827 550.002C93.1209 548.632 92.8823 547.232 92.7697 545.819C92.3389 542.831 91.8339 539.5 91.2842 535.721C90.7346 531.941 90.1999 528.535 89.7988 525.622C89.4976 524.233 89.3334 522.817 89.3086 521.395Z" fill="#263238"/>
<g opacity="0.3">
<path d="M93.3126 550.063C93.3126 550.063 100.636 527.281 88.0096 513.777C87.9117 513.669 87.7862 513.591 87.6469 513.551C87.5076 513.51 87.3599 513.509 87.2201 513.548C87.0803 513.586 86.9538 513.663 86.8546 513.769C86.7554 513.876 86.6873 514.008 86.6578 514.15C85.9299 517.915 84.9792 529.403 93.3126 550.063Z" fill="black"/>
</g>
<path d="M133.238 469.738C133.238 469.738 152.757 455.995 150.781 437.561C150.769 437.415 150.716 437.275 150.629 437.157C150.542 437.039 150.424 436.948 150.288 436.894C150.153 436.84 150.005 436.825 149.861 436.85C149.717 436.875 149.583 436.941 149.474 437.038C146.652 439.697 138.987 448.197 133.238 469.738Z" fill="#800080"/>
<g opacity="0.3">
<path d="M133.238 469.742C133.238 469.742 152.757 455.999 150.781 437.565C150.769 437.418 150.716 437.279 150.629 437.161C150.542 437.043 150.424 436.952 150.288 436.898C150.153 436.844 150.005 436.828 149.861 436.854C149.717 436.879 149.583 436.944 149.474 437.042C146.652 439.701 138.987 448.201 133.238 469.742Z" fill="black"/>
</g>
<path d="M147.263 444.445C146.869 445.806 146.326 447.119 145.644 448.359C144.53 450.734 142.911 453.961 141.024 457.487C139.138 461.012 137.325 464.134 135.914 466.345C135.24 467.594 134.406 468.749 133.434 469.781C133.969 468.47 134.621 467.211 135.38 466.017L140.237 457.053L145.08 448.09C145.681 446.803 146.412 445.581 147.263 444.445Z" fill="#263238"/>
<path d="M101.168 527.474C101.168 527.474 124.653 523.784 131.011 506.367C131.063 506.23 131.077 506.08 131.05 505.936C131.022 505.791 130.956 505.657 130.857 505.549C130.758 505.44 130.631 505.361 130.491 505.321C130.35 505.281 130.201 505.281 130.06 505.321C126.391 506.367 115.74 510.684 101.168 527.474Z" fill="#800080"/>
<g opacity="0.3">
<path d="M101.16 527.476C101.16 527.476 124.645 523.786 131.003 506.369C131.055 506.232 131.069 506.082 131.042 505.938C131.015 505.793 130.948 505.659 130.849 505.55C130.75 505.442 130.624 505.363 130.483 505.323C130.342 505.283 130.193 505.283 130.052 505.323C126.383 506.369 115.732 510.686 101.16 527.476Z" fill="black"/>
</g>
<path d="M124.833 510.984C123.884 512.025 122.828 512.961 121.684 513.778C119.648 515.421 116.782 517.602 113.543 519.917C110.305 522.232 107.304 524.249 105.091 525.623C103.927 526.435 102.67 527.102 101.348 527.61C102.398 526.667 103.532 525.822 104.734 525.086L113.038 519.2L121.312 513.225C122.405 512.357 123.585 511.606 124.833 510.984Z" fill="#263238"/>
<path d="M78.7222 571.037L71.8594 617.496H114.64L109.085 571.037H78.7222Z" fill="#455A64"/>
<path d="M110.804 585.421C110.804 585.675 103.08 585.869 93.543 585.869C84.0064 585.869 76.2969 585.675 76.2969 585.421C82.0344 584.979 87.7904 584.829 93.543 584.973C99.3005 584.829 105.062 584.978 110.804 585.421Z" fill="#263238"/>
<path d="M111.651 589.081C111.651 589.32 103.674 589.529 93.8254 589.529C83.9769 589.529 76 589.32 76 589.081C76 588.842 83.9769 588.633 93.8254 588.633C103.674 588.633 111.651 588.872 111.651 589.081Z" fill="#263238"/>
</svg>
